<svg xmlns="http://www.w3.org/2000/svg" xml:space="preserve" width="2000" height="1500" viewBox="0 0 2000 1500" data-version="1" data-id="lg_mHfbWsdV6LPHnN7Df8" x="0" y="0"><rect width="2000" height="1500" id="background" stroke="transparent" fill="#ffffff"></rect><g id="outer-wrapper" data-padding="20" transform="matrix(2.0756457564575648,0,0,2.0756457564575648,-1075.6457564575649,-806.7343173431736)"><g id="inner-wrapper" transform="matrix(0.971830985915493,0,0,0.971830985915493,10,7.63380281690138)"><path fill="none" stroke="#001572" stroke-width="1.32" d="M1017.945652173913 492.73655797101446A199.85 199.85 0 1 0 1017.945652173913 892.4365579710144A199.85 199.85 0 1 0 1017.945652173913 492.7365579710144Z "></path><rect width="350.192" height="131.082" x="293.1052516469038" y="216.00184694773816" fill="#fff" rx="0" ry="0" transform="translate(400 474.04)scale(1.32)"></rect><rect width="418.515" height="131.08" x="408.767652173913" y="306.09655797101436" fill="none" rx="0" ry="0" transform="translate(399.83 538.58)"></rect><path fill="#001572" d="M814.905652173913 946.1665579710144Q814.555652173913 946.1665579710144 814.555652173913 945.4665579710144T814.7856521739129 944.7665579710143Q818.965652173913 944.7665579710143 820.935652173913 944.1365579710143Q822.905652173913 943.4965579710143 823.605652173913 941.8665579710143Q824.2956521739129 940.2465579710143 824.185652173913 936.7665579710143V883.0565579710144Q824.185652173913 879.5765579710144 823.485652173913 877.9565579710143Q822.795652173913 876.3265579710144 820.815652173913 875.6965579710143Q818.845652173913 875.0565579710144 814.785652173913 875.0565579710144Q814.555652173913 875.0565579710144 814.555652173913 874.3565579710144Q814.555652173913 873.6665579710143 814.785652173913 873.6665579710143L820.1256521739131 873.7765579710144Q824.7656521739129 874.0065579710144 827.775652173913 874.0065579710144Q831.255652173913 874.0065579710144 835.895652173913 873.7765579710144L841.0056521739131 873.6665579710143Q841.3556521739131 873.6665579710143 841.3556521739131 874.3565579710144Q841.3556521739131 875.0565579710144 841.0056521739131 875.0565579710144Q836.945652173913 875.0565579710144 835.025652173913 875.7465579710143Q833.1156521739131 876.4465579710143 832.475652173913 878.1265579710143T831.725652173913 883.2865579710144V936.7665579710143Q831.8356521739131 940.2465579710143 832.475652173913 941.9265579710143T835.025652173913 944.1865579710143Q836.945652173913 944.7665579710143 841.0056521739131 944.7665579710143Q841.3556521739131 944.7665579710143 841.3556521739131 945.4665579710144T841.1156521739131 946.1665579710144Q837.755652173913 946.1665579710144 835.895652173913 946.0465579710144L828.1256521739131 945.9265579710144L820.475652173913 946.0465579710144Q818.3856521739131 946.1665579710144 814.905652173913 946.1665579710144M905.155652173913 937.2265579710144L905.3856521739131 937.1165579710143Q905.845652173913 937.1165579710143 906.255652173913 937.5165579710143Q906.655652173913 937.9265579710143 906.425652173913 938.1565579710143Q902.8356521739131 942.7965579710143 900.1056521739131 945.0065579710143Q897.3756521739131 947.2065579710144 894.3656521739131 947.2065579710144Q887.755652173913 947.2065579710144 887.985652173913 938.0465579710144L888.0956521739131 917.3965579710144Q888.0956521739131 904.4065579710144 881.2556521739131 904.4065579710144Q876.8456521739131 904.4065579710144 873.195652173913 909.1565579710144Q869.535652173913 913.9165579710144 867.3356521739131 923.1965579710144T865.015652173913 945.3465579710144Q865.015652173913 946.1665579710144 864.025652173913 946.6265579710143Q863.045652173913 947.0865579710144 861.185652173913 947.0865579710144Q859.445652173913 947.0865579710144 858.8656521739131 946.9165579710144T858.055652173913 946.3965579710144Q858.055652173913 945.9265579710144 858.225652173913 943.2065579710144Q858.405652173913 940.4765579710144 858.405652173913 937.5765579710144L858.6356521739131 911.7065579710144Q858.6356521739131 908.2265579710144 857.705652173913 906.5465579710144T855.155652173913 904.8665579710145Q852.605652173913 904.8665579710145 847.3856521739131 910.4365579710145Q847.155652173913 910.6665579710145 847.035652173913 910.6665579710145Q846.575652173913 910.6665579710145 846.225652173913 910.2565579710146Q845.8756521739131 909.8565579710146 846.105652173913 909.5065579710146Q849.585652173913 904.8665579710146 852.605652173913 902.6065579710146Q855.615652173913 900.3465579710146 858.865652173913 900.3465579710146T863.565652173913 902.5465579710146T865.0156521739129 909.2765579710147V925.7465579710147Q867.215652173913 913.5665579710147 872.2656521739129 906.7265579710147Q877.3156521739129 899.8765579710147 884.505652173913 899.8765579710147Q889.605652173913 899.8765579710147 892.1556521739129 903.5365579710146Q894.715652173913 907.1865579710146 894.5956521739129 915.1865579710146L894.475652173913 935.8365579710146Q894.475652173913 939.3165579710146 895.235652173913 940.9465579710146Q895.985652173913 942.5665579710146 897.725652173913 942.5665579710146Q900.3956521739129 942.5665579710146 905.1556521739129 937.2265579710146M958.745652173913 937.4665579710146Q958.8556521739129 937.3465579710146 959.0956521739129 937.3465579710146Q959.5556521739129 937.3465579710146 959.8456521739129 937.7565579710146Q960.135652173913 938.1565579710145 959.9056521739129 938.3865579710146Q956.4256521739129 942.9165579710145 953.5856521739129 945.0565579710145Q950.735652173913 947.2065579710145 947.8356521739129 947.2065579710145Q945.1756521739129 947.2065579710145 942.6756521739129 945.5265579710145Q940.1856521739129 943.8465579710146 936.475652173913 939.4365579710145L926.725652173913 927.7165579710145Q925.3356521739129 925.9765579710145 924.2956521739129 925.2865579710145Q923.245652173913 924.5865579710145 921.8556521739129 924.5865579710145L920.8156521739129 924.7065579710145L920.4656521739129 945.3465579710145Q920.4656521739129 947.0865579710145 916.755652173913 947.0865579710145Q915.0156521739129 947.0865579710145 914.4356521739129 946.9165579710145T913.735652173913 946.3965579710145L913.8556521739129 943.6065579710146L913.965652173913 937.5765579710146L914.7756521739129 874.3565579710146Q914.7756521739129 868.9065579710145 910.955652173913 868.9065579710145Q908.865652173913 868.9065579710145 905.0356521739129 870.6465579710145H904.8056521739129Q904.3356521739129 870.6465579710145 904.1656521739129 870.1265579710146T904.3356521739129 869.3665579710146L919.5356521739129 862.0665579710146H919.7656521739129Q920.115652173913 862.0665579710146 920.5756521739129 862.4065579710145Q921.0456521739129 862.7565579710147 921.0456521739129 862.9865579710146L920.8156521739129 910.3165579710146Q924.635652173913 905.4465579710146 929.915652173913 902.6665579710146Q935.195652173913 899.8765579710147 940.645652173913 899.8765579710147Q945.755652173913 899.8765579710147 947.605652173913 902.0865579710147Q949.465652173913 904.2865579710148 949.465652173913 906.8365579710147Q949.465652173913 911.0165579710147 944.415652173913 915.0165579710147Q939.375652173913 919.0165579710147 930.325652173913 922.0365579710146L941.575652173913 935.4865579710147Q944.825652173913 939.4365579710147 946.915652173913 940.8265579710147Q948.995652173913 942.2165579710147 950.735652173913 942.2165579710147Q954.335652173913 942.2165579710147 958.745652173913 937.4665579710147M935.7756521739129 903.3565579710147Q929.745652173913 903.3565579710147 925.505652173913 908.5765579710147Q921.2756521739129 913.7965579710147 920.815652173913 922.1465579710148V923.0765579710147Q931.715652173913 920.5265579710148 936.295652173913 917.5065579710147Q940.8756521739131 914.4965579710147 940.8756521739131 909.1565579710146Q940.8756521739131 906.2565579710147 939.715652173913 904.8065579710146T935.7756521739129 903.3565579710146M974.175652173913 947.4365579710146Q969.0656521739129 947.4365579710146 965.125652173913 945.2365579710146Q961.175652173913 943.0265579710145 961.175652173913 940.0165579710145Q961.175652173913 938.5065579710146 962.165652173913 937.7565579710146Q963.155652173913 936.9965579710146 964.5456521739129 936.9965579710146Q965.8156521739129 936.9965579710146 966.745652173913 937.7565579710146Q967.675652173913 938.5065579710146 968.8356521739129 940.0165579710145Q970.8056521739129 942.4465579710145 972.6056521739129 943.6665579710145T977.5356521739129 944.8865579710146Q980.8956521739129 944.8865579710146 982.635652173913 943.1465579710145T984.375652173913 938.1565579710145Q984.2656521739129 933.8665579710146 981.5356521739129 930.9665579710145Q978.8156521739129 928.0665579710145 973.475652173913 924.7065579710145Q968.1356521739131 921.3365579710145 965.415652173913 918.4365579710145Q962.685652173913 915.5365579710145 962.685652173913 911.3665579710145Q962.685652173913 906.3765579710144 967.215652173913 903.2965579710144Q971.735652173913 900.2265579710144 977.4156521739129 900.2265579710144Q982.0556521739129 900.2265579710144 985.485652173913 901.9065579710143Q988.9056521739129 903.5865579710143 988.9056521739129 906.1465579710143Q988.9056521739129 907.5365579710143 987.975652173913 908.3465579710144T985.6556521739129 909.1565579710143Q984.1456521739129 909.1565579710143 983.1656521739129 908.5165579710143Q982.1756521739129 907.8865579710143 980.6656521739129 906.3765579710143Q978.9256521739129 904.6365579710143 977.3056521739129 903.7065579710144Q975.6756521739129 902.7765579710144 973.1256521739128 902.7765579710144T969.1256521739128 903.9365579710144T967.6756521739129 907.5365579710144Q967.6756521739129 910.8965579710144 970.2856521739129 913.6265579710144Q972.8956521739129 916.3465579710145 977.995652173913 919.8265579710145Q983.7956521739129 923.8865579710144 986.6956521739129 926.9065579710145T989.5956521739129 934.2165579710145Q989.5956521739129 937.4665579710145 987.6856521739128 940.5365579710145T982.2356521739129 945.5265579710145Q978.6956521739128 947.4365579710145 974.1756521739128 947.4365579710145M1015.6956521739128 946.2665579710145Q1012.9156521739128 946.2665579710145 1009.4356521739128 945.9165579710145V966.7965579710145Q1009.4356521739128 970.8565579710145 1010.5956521739129 972.4265579710145T1014.8856521739128 973.9965579710146Q1015.6956521739129 973.9965579710146 1018.0156521739129 973.7565579710146H1018.1356521739128Q1018.485652173913 973.7565579710146 1018.5956521739129 974.3365579710146Q1018.7156521739129 974.9165579710146 1018.255652173913 975.0365579710146L996.9056521739128 978.0565579710146Q996.4456521739129 978.1665579710146 996.2656521739129 977.4765579710146Q996.0956521739129 976.7765579710145 996.5556521739129 976.6565579710145Q999.3456521739129 976.1965579710145 1000.5656521739129 975.4465579710145Q1001.7756521739129 974.6865579710145 1002.1856521739129 973.0665579710145Q1002.5956521739129 971.4365579710145 1002.5956521739129 967.6165579710145L1002.705652173913 912.5165579710144Q1002.125652173913 912.8565579710145 997.715652173913 916.4565579710145L997.485652173913 916.5765579710145Q997.0256521739129 916.5765579710145 996.6756521739129 916.1065579710145Q996.3256521739129 915.6465579710144 996.5556521739129 915.4165579710144Q998.5356521739129 913.5565579710144 1002.7056521739129 910.0765579710144V901.3765579710143Q1002.7056521739129 901.1465579710143 1004.2156521739129 899.7565579710143Q1005.7256521739129 898.3565579710144 1006.8856521739128 896.7365579710143T1008.0456521739129 893.0265579710143Q1008.0456521739129 892.5565579710143 1008.735652173913 892.5565579710143Q1009.4356521739129 892.5565579710143 1009.4356521739129 893.0265579710143V905.5565579710143Q1018.0156521739129 900.5665579710143 1025.795652173913 900.5665579710143Q1033.0956521739129 900.5665579710143 1037.045652173913 904.9765579710142Q1040.985652173913 909.3765579710142 1040.985652173913 917.8465579710142Q1040.985652173913 925.7365579710142 1037.8556521739129 932.2365579710142Q1034.725652173913 938.7265579710142 1028.985652173913 942.4965579710142Q1023.235652173913 946.2665579710142 1015.6956521739129 946.2665579710142M1021.1556521739128 904.7365579710142Q1015.4656521739129 904.7365579710142 1009.4356521739128 908.1065579710142V941.0465579710143Q1014.4256521739128 943.0165579710143 1019.0656521739129 943.0165579710143Q1027.535652173913 943.0165579710143 1031.065652173913 937.5665579710143Q1034.6056521739129 932.1165579710142 1034.6056521739129 922.3765579710142Q1034.6056521739129 904.7365579710142 1021.1556521739128 904.7365579710142M1100.735652173913 937.2265579710142Q1100.8556521739129 937.1165579710142 1101.0856521739129 937.1165579710142Q1101.545652173913 937.1165579710142 1101.9556521739128 937.5165579710142Q1102.3656521739128 937.9265579710142 1102.1256521739128 938.1565579710142Q1098.4156521739128 942.9165579710142 1095.695652173913 945.0565579710142Q1092.965652173913 947.2065579710141 1090.065652173913 947.2065579710141Q1083.4556521739128 947.2065579710141 1083.6856521739128 938.0465579710142L1083.805652173913 917.3965579710142Q1083.9156521739128 904.4065579710142 1076.8456521739129 904.4065579710142Q1072.4356521739128 904.4065579710142 1068.8356521739129 909.1565579710142Q1065.245652173913 913.9165579710142 1063.035652173913 923.1965579710142Q1060.8356521739129 932.4765579710141 1060.6056521739129 945.3465579710141Q1060.6056521739129 947.0865579710141 1056.8856521739128 947.0865579710141Q1055.1456521739128 947.0865579710141 1054.565652173913 946.9165579710142T1053.8756521739128 946.3965579710142L1053.985652173913 943.6065579710142L1054.1056521739129 937.5765579710143L1054.9156521739128 874.3565579710142Q1054.9156521739128 868.9065579710143 1051.0856521739129 868.9065579710143Q1049.005652173913 868.9065579710143 1045.175652173913 870.6465579710143H1044.945652173913Q1044.4756521739127 870.6465579710143 1044.305652173913 870.1265579710143Q1044.1256521739128 869.6065579710144 1044.475652173913 869.3665579710143L1059.675652173913 862.0665579710143H1059.905652173913Q1060.255652173913 862.0665579710143 1060.715652173913 862.4065579710143Q1061.185652173913 862.7565579710142 1061.185652173913 862.9865579710142L1060.715652173913 925.8665579710142Q1062.925652173913 913.6865579710143 1067.965652173913 906.7765579710142Q1073.015652173913 899.8765579710142 1080.205652173913 899.8765579710142Q1085.305652173913 899.8765579710142 1087.805652173913 903.5865579710143Q1090.295652173913 907.3065579710143 1090.185652173913 915.1865579710143L1090.065652173913 935.8365579710143Q1090.065652173913 939.3165579710143 1090.8756521739128 940.9465579710143Q1091.685652173913 942.5665579710143 1093.425652173913 942.5665579710143Q1096.3256521739129 942.5665579710143 1100.735652173913 937.2265579710142M1140.645652173913 939.7865579710142H1140.875652173913Q1141.225652173913 939.7865579710142 1141.625652173913 940.1265579710142Q1142.035652173913 940.4765579710142 1141.805652173913 940.8265579710143Q1134.145652173913 947.5565579710143 1124.745652173913 947.5565579710143Q1118.255652173913 947.5565579710143 1113.615652173913 944.5365579710143Q1108.975652173913 941.5265579710143 1106.655652173913 936.5365579710143T1104.3356521739129 925.8665579710143Q1104.3356521739129 919.1365579710143 1107.465652173913 913.1565579710143Q1110.595652173913 907.1865579710143 1116.1056521739129 903.5365579710143Q1121.615652173913 899.8765579710143 1128.575652173913 899.8765579710143Q1133.215652173913 899.8765579710143 1135.8256521739129 901.5565579710143Q1138.435652173913 903.2465579710143 1138.435652173913 906.1465579710143Q1138.3256521739129 911.2465579710143 1130.545652173913 915.4765579710144Q1122.775652173913 919.7165579710144 1111.405652173913 921.3365579710144Q1111.645652173913 931.4265579710144 1116.1056521739129 937.5165579710143Q1120.575652173913 943.6065579710144 1128.805652173913 943.6065579710144Q1131.8256521739129 943.6065579710144 1134.955652173913 942.6865579710144Q1138.0856521739129 941.7565579710144 1140.645652173913 939.7865579710144M1123.5856521739129 903.0065579710144Q1117.675652173913 903.0065579710144 1114.655652173913 907.6465579710144Q1111.645652173913 912.2865579710144 1111.405652173913 919.7165579710145Q1130.0856521739129 916.5865579710145 1130.0856521739129 907.7665579710144Q1130.0856521739129 905.4465579710144 1128.3456521739129 904.2265579710145T1123.5856521739129 903.0065579710144M1174.6156521739128 900.2265579710145Q1177.285652173913 900.2265579710145 1179.785652173913 901.9665579710145Q1182.275652173913 903.7065579710145 1182.275652173913 905.9065579710145Q1182.275652173913 907.5365579710145 1181.1156521739128 908.6365579710146T1178.445652173913 909.7365579710146Q1177.175652173913 909.7365579710146 1176.3556521739129 909.2765579710145Q1175.545652173913 908.8065579710145 1174.6156521739128 907.9965579710146Q1174.035652173913 907.4165579710145 1173.4056521739128 907.0165579710145Q1172.765652173913 906.6065579710146 1171.9556521739128 906.6065579710146Q1169.285652173913 906.6065579710146 1166.7356521739127 913.2165579710146Q1164.1756521739128 919.8265579710146 1162.4956521739127 929.0565579710146Q1160.815652173913 938.2765579710147 1160.6956521739128 945.3465579710146Q1160.6956521739128 946.1665579710146 1159.7156521739128 946.6265579710146Q1158.7256521739127 947.0865579710146 1156.9856521739127 947.0865579710146T1154.6656521739128 946.9165579710146T1153.9756521739127 946.3965579710147Q1153.9756521739127 945.9265579710146 1154.0856521739126 943.7865579710146Q1154.2056521739128 941.6365579710147 1154.2056521739128 937.5765579710146L1154.4356521739128 916.1165579710146Q1154.4356521739128 904.8665579710146 1150.0256521739127 904.8665579710146Q1146.5456521739127 904.8665579710146 1142.6056521739129 909.0465579710145L1142.3756521739128 909.1565579710145Q1142.0256521739127 909.1565579710145 1141.7356521739127 908.8065579710145Q1141.4456521739128 908.4665579710145 1141.555652173913 908.2265579710145Q1144.4556521739128 904.5165579710144 1147.8856521739128 902.4265579710145Q1151.305652173913 900.3465579710145 1154.315652173913 900.3465579710145Q1157.565652173913 900.3465579710145 1159.2456521739127 903.5865579710145Q1160.9356521739128 906.8365579710145 1160.815652173913 915.8865579710144V929.3465579710145Q1162.555652173913 917.1665579710145 1166.1556521739128 908.6965579710145Q1169.745652173913 900.2265579710145 1174.6156521739128 900.2265579710145M1224.975652173913 939.7865579710145H1225.205652173913Q1225.555652173913 939.7865579710145 1225.955652173913 940.1265579710146Q1226.3656521739128 940.4765579710146 1226.1356521739128 940.8265579710146Q1218.475652173913 947.5565579710146 1209.0856521739129 947.5565579710146Q1202.5856521739129 947.5565579710146 1197.945652173913 944.5365579710146Q1193.305652173913 941.5265579710147 1190.985652173913 936.5365579710146T1188.6656521739128 925.8665579710147Q1188.6656521739128 919.1365579710147 1191.795652173913 913.1565579710146Q1194.9256521739128 907.1865579710146 1200.4356521739128 903.5365579710146Q1205.9456521739128 899.8765579710147 1212.9056521739128 899.8765579710147Q1217.545652173913 899.8765579710147 1220.1556521739128 901.5565579710146Q1222.765652173913 903.2465579710147 1222.765652173913 906.1465579710147Q1222.6556521739128 911.2465579710147 1214.8856521739128 915.4765579710147Q1207.1056521739129 919.7165579710147 1195.745652173913 921.3365579710147Q1195.975652173913 931.4265579710147 1200.435652173913 937.5165579710147Q1204.905652173913 943.6065579710147 1213.145652173913 943.6065579710147Q1216.155652173913 943.6065579710147 1219.285652173913 942.6865579710147Q1222.425652173913 941.7565579710148 1224.975652173913 939.7865579710148M1207.925652173913 903.0065579710148Q1202.0056521739132 903.0065579710148 1198.985652173913 907.6465579710148Q1195.975652173913 912.2865579710148 1195.745652173913 919.7165579710148Q1214.415652173913 916.5865579710148 1214.415652173913 907.7665579710148Q1214.415652173913 905.4465579710147 1212.675652173913 904.2265579710148T1207.925652173913 903.0065579710148 "></path><rect width="709.728" height="28.25" x="263.161652173913" y="357.51155797101455" fill="none" rx="0" ry="0" transform="translate(400.67 649.27)"></rect><path fill="#001572" d="M675.905652173913 1027.4265579710145Q674.215652173913 1025.7665579710142 674.215652173913 1023.0165579710143T675.915652173913 1018.5565579710143Q677.625652173913 1016.8365579710143 680.255652173913 1016.8365579710143Q682.345652173913 1016.8365579710143 683.785652173913 1018.1865579710144Q685.215652173913 1019.5365579710143 685.215652173913 1021.5765579710143Q685.215652173913 1022.5665579710143 683.655652173913 1022.5665579710143H676.585652173913Q676.605652173913 1024.5465579710144 677.865652173913 1025.8965579710143Q679.125652173913 1027.2565579710144 681.045652173913 1027.2565579710144Q682.315652173913 1027.2565579710144 683.505652173913 1026.5065579710144Q684.145652173913 1026.1165579710146 684.315652173913 1026.1165579710146Q684.495652173913 1026.1165579710146 684.725652173913 1026.2965579710144Q684.945652173913 1026.4765579710142 684.945652173913 1026.7265579710142Q684.945652173913 1027.3965579710143 684.085652173913 1027.9665579710145T682.185652173913 1028.8065579710142Q681.155652173913 1029.0865579710144 680.365652173913 1029.0865579710144Q677.595652173913 1029.0865579710144 675.905652173913 1027.4265579710145M682.965652173913 1021.2865579710143Q682.945652173913 1019.8765579710144 682.235652173913 1019.0065579710143Q681.5256521739129 1018.1265579710144 680.165652173913 1018.1265579710144T677.7856521739129 1019.0965579710145Q676.7656521739129 1020.0765579710145 676.705652173913 1021.3365579710145H679.565652173913Q681.465652173913 1021.3365579710145 682.965652173913 1021.2865579710145M696.865652173913 1028.7665579710147L695.815652173913 1028.7765579710144Q694.215652173913 1028.7765579710144 693.835652173913 1028.2865579710146Q693.665652173913 1028.0665579710144 693.665652173913 1027.7565579710144T693.905652173913 1027.3265579710146Q694.155652173913 1027.2065579710147 694.455652173913 1027.1865579710147Q694.745652173913 1027.1765579710145 694.995652173913 1026.9965579710147Q695.235652173913 1026.8265579710146 695.235652173913 1026.4365579710147V1019.4665579710146Q695.235652173913 1019.0965579710145 694.965652173913 1018.9165579710146Q694.685652173913 1018.7265579710146 694.375652173913 1018.7065579710146Q693.495652173913 1018.6565579710146 693.495652173913 1018.1565579710146Q693.495652173913 1017.3565579710147 695.105652173913 1017.0665579710145Q695.465652173913 1016.9965579710146 695.785652173913 1016.9965579710146Q696.835652173913 1016.9965579710146 697.145652173913 1017.3065579710145Q697.445652173913 1017.6165579710145 697.445652173913 1018.6965579710144Q699.135652173913 1016.8165579710145 702.0156521739129 1016.8165579710145Q703.0156521739129 1016.8165579710145 703.955652173913 1017.4165579710144Q704.905652173913 1018.0265579710145 705.435652173913 1018.8265579710145Q707.505652173913 1016.8065579710145 710.045652173913 1016.8065579710145Q712.985652173913 1016.8065579710145 713.795652173913 1019.3165579710145Q714.235652173913 1020.6865579710144 714.235652173913 1023.0165579710145V1026.4365579710143Q714.235652173913 1027.1465579710143 715.0156521739129 1027.1865579710143Q715.805652173913 1027.2265579710142 715.805652173913 1027.8165579710144Q715.805652173913 1028.4865579710145 715.075652173913 1028.6465579710143Q714.5156521739129 1028.7665579710147 713.535652173913 1028.7665579710147L712.485652173913 1028.7765579710144Q710.8856521739131 1028.7765579710144 710.505652173913 1028.2865579710146Q710.335652173913 1028.0665579710144 710.335652173913 1027.7565579710144T710.585652173913 1027.3265579710146Q710.825652173913 1027.2065579710147 711.125652173913 1027.1865579710147Q711.425652173913 1027.1765579710145 711.665652173913 1026.9965579710147Q711.915652173913 1026.8265579710146 711.915652173913 1026.4365579710147V1022.6765579710146Q711.915652173913 1019.8865579710147 711.285652173913 1019.1265579710147Q710.705652173913 1018.3765579710147 709.615652173913 1018.3765579710147Q708.535652173913 1018.3765579710147 707.735652173913 1018.6665579710146Q706.935652173913 1018.9465579710146 706.415652173913 1019.5565579710145Q705.905652173913 1020.1565579710146 705.905652173913 1020.9765579710146V1026.4365579710147Q705.905652173913 1027.1465579710148 706.695652173913 1027.1865579710147T707.485652173913 1027.8165579710144Q707.485652173913 1028.4865579710145 706.7456521739131 1028.6465579710148Q706.185652173913 1028.7665579710147 705.215652173913 1028.7665579710147L704.165652173913 1028.7765579710144Q702.565652173913 1028.7765579710144 702.185652173913 1028.2865579710146Q702.015652173913 1028.0665579710144 702.015652173913 1027.7565579710144T702.2556521739131 1027.3265579710146Q702.5056521739131 1027.2065579710147 702.795652173913 1027.1865579710147Q703.095652173913 1027.1765579710145 703.345652173913 1026.9965579710147Q703.585652173913 1026.8265579710146 703.585652173913 1026.4365579710147V1022.7965579710147Q703.585652173913 1020.4965579710148 703.185652173913 1019.6365579710147Q702.595652173913 1018.3765579710147 701.185652173913 1018.3765579710147Q699.425652173913 1018.3765579710147 698.495652173913 1019.2665579710148Q697.555652173913 1020.1565579710146 697.555652173913 1021.8065579710147V1026.4365579710147Q697.555652173913 1027.1465579710148 698.345652173913 1027.1865579710147T699.1356521739131 1027.8165579710148Q699.1356521739131 1028.4865579710145 698.395652173913 1028.6465579710148Q697.835652173913 1028.7665579710147 696.8656521739131 1028.7665579710147M734.785652173913 1023.1365579710147Q734.785652173913 1020.3165579710147 733.145652173913 1019.0365579710148Q732.295652173913 1018.3765579710147 731.1056521739131 1018.3765579710147Q727.6056521739131 1018.3765579710147 727.6056521739131 1022.3165579710147V1026.3365579710148Q728.595652173913 1027.6165579710146 731.015652173913 1027.6165579710146Q732.765652173913 1027.6165579710146 733.775652173913 1026.3565579710148Q734.785652173913 1025.0865579710148 734.785652173913 1023.1365579710147M726.915652173913 1033.7665579710147L725.8656521739131 1033.7865579710146Q724.265652173913 1033.7865579710146 723.8856521739131 1033.2965579710149Q723.715652173913 1033.0765579710146 723.715652173913 1032.7665579710147T723.955652173913 1032.3265579710146Q724.205652173913 1032.2065579710147 724.4956521739131 1032.1965579710145Q724.795652173913 1032.1865579710147 725.045652173913 1032.0065579710144Q725.285652173913 1031.8265579710146 725.285652173913 1031.4365579710147V1020.4265579710146Q725.285652173913 1019.5465579710145 725.155652173913 1019.2165579710146Q725.035652173913 1018.8765579710144 724.575652173913 1018.7065579710146Q724.525652173913 1018.6865579710146 724.095652173913 1018.5865579710145Q723.175652173913 1018.3665579710145 723.175652173913 1017.9765579710146Q723.175652173913 1017.0265579710145 725.6256521739131 1017.0265579710145Q726.665652173913 1017.0265579710145 727.085652173913 1017.2665579710145Q727.495652173913 1017.5065579710146 727.495652173913 1018.3165579710145Q727.495652173913 1018.5565579710145 727.485652173913 1018.6865579710144Q728.425652173913 1017.7665579710145 729.3756521739131 1017.2865579710145Q730.325652173913 1016.8165579710145 731.805652173913 1016.8165579710145T734.575652173913 1017.6465579710144Q735.855652173913 1018.4765579710146 736.515652173913 1019.8365579710145T737.175652173913 1022.8665579710145Q737.175652173913 1025.5165579710147 735.445652173913 1027.2365579710145Q733.705652173913 1028.9565579710147 731.035652173913 1028.9565579710147Q729.535652173913 1028.9565579710147 727.605652173913 1027.9765579710147V1031.4365579710147Q727.605652173913 1032.1465579710148 728.395652173913 1032.1865579710147Q729.185652173913 1032.2365579710145 729.185652173913 1032.8165579710144Q729.185652173913 1033.4865579710145 728.435652173913 1033.6465579710148Q727.895652173913 1033.7665579710147 726.915652173913 1033.7665579710147M750.805652173913 1029.0565579710146Q748.055652173913 1029.0565579710146 746.3656521739131 1027.3165579710144Q744.685652173913 1025.5765579710146 744.685652173913 1022.9065579710146Q744.685652173913 1021.1265579710147 745.575652173913 1019.7365579710146T747.985652173913 1017.6065579710147T751.3756521739131 1016.8665579710147Q754.055652173913 1016.8665579710147 755.805652173913 1018.5365579710145Q757.545652173913 1020.2065579710146 757.545652173913 1022.8565579710147Q757.545652173913 1024.6865579710147 756.655652173913 1026.1165579710146Q755.7556521739131 1027.5365579710146 754.225652173913 1028.2965579710144Q752.705652173913 1029.0565579710146 750.805652173913 1029.0565579710146M751.305652173913 1027.7065579710147Q753.1256521739131 1027.7065579710147 754.145652173913 1026.4765579710147Q755.165652173913 1025.2365579710145 755.165652173913 1023.1865579710146T753.9956521739131 1019.6465579710147T750.9856521739131 1018.1565579710146T748.165652173913 1019.4165579710146Q747.175652173913 1020.6765579710146 747.175652173913 1022.7165579710146Q747.175652173913 1024.7465579710147 748.3356521739131 1026.2265579710147T751.3056521739131 1027.7065579710147M778.8256521739131 1025.1965579710145L779.3156521739131 1026.3565579710144Q781.7256521739131 1020.0465579710145 781.9656521739131 1018.8865579710144Q781.9656521739131 1018.6365579710144 781.415652173913 1018.5065579710146Q780.3756521739131 1018.2965579710145 780.3756521739131 1017.8665579710145Q780.3756521739131 1017.5065579710146 780.4656521739131 1017.3765579710144Q781.7256521739131 1017.0665579710145 783.2856521739131 1017.0665579710145Q785.8056521739131 1017.0665579710145 785.8056521739131 1017.5965579710145Q785.8056521739131 1018.0465579710145 785.395652173913 1018.3765579710144Q784.4756521739131 1018.5065579710146 784.0156521739132 1018.9365579710144Q783.5456521739131 1019.3565579710145 783.2456521739131 1020.1565579710144L782.4856521739131 1022.1465579710144Q780.3056521739131 1027.6565579710145 780.0556521739131 1028.0465579710144Q779.4556521739131 1029.0565579710146 778.895652173913 1029.0565579710146Q778.4456521739131 1029.0565579710146 777.9256521739131 1027.9265579710145Q777.8256521739131 1027.7265579710142 777.8156521739131 1027.6865579710143L775.015652173913 1021.5265579710145Q773.0856521739131 1025.8365579710144 772.0456521739131 1027.9865579710145Q771.7956521739131 1028.6065579710144 771.515652173913 1028.7865579710146Q771.2356521739131 1028.9565579710143 770.935652173913 1028.9565579710143T770.5456521739131 1028.8665579710146T770.3456521739131 1028.5865579710144T770.155652173913 1028.2665579710142Q770.0856521739131 1028.1265579710143 769.9656521739131 1027.8765579710143T769.8056521739131 1027.5665579710144L766.895652173913 1020.8265579710145Q766.1256521739131 1018.9165579710144 765.8256521739131 1018.6065579710145V1018.6165579710145Q765.6056521739131 1018.5265579710143 765.1056521739131 1018.4465579710144T764.3456521739131 1018.2065579710144Q764.0956521739131 1018.0465579710145 764.0956521739131 1017.6665579710144Q764.0956521739131 1017.0665579710145 767.4356521739131 1017.0665579710145Q768.5856521739131 1017.0665579710145 769.4156521739131 1017.2265579710144Q770.2556521739132 1017.3865579710144 770.2556521739132 1017.6165579710145Q770.2556521739132 1018.0265579710143 770.1056521739131 1018.1565579710144Q769.9456521739131 1018.2965579710143 769.5456521739131 1018.4065579710144Q768.8556521739131 1018.5865579710143 768.8556521739131 1018.9965579710143Q768.8556521739131 1019.6065579710145 770.0156521739132 1022.6265579710144Q771.1856521739131 1025.6565579710145 771.5156521739132 1026.3265579710146Q772.6256521739131 1023.9665579710144 774.1956521739131 1019.9765579710144Q773.7956521739131 1018.9765579710144 773.4756521739131 1018.7265579710144L772.9756521739131 1018.3265579710145Q772.5756521739131 1018.0265579710145 772.5756521739131 1017.8865579710144Q772.5756521739131 1017.2565579710143 774.9856521739131 1017.2565579710143T777.395652173913 1017.7265579710144Q777.395652173913 1018.1665579710144 776.8456521739131 1018.2165579710144Q776.2856521739131 1018.2565579710143 776.2856521739131 1018.5865579710145T776.3756521739131 1019.1665579710144T776.5656521739131 1019.6565579710144Q776.665652173913 1019.8865579710144 776.8456521739131 1020.3765579710144Q777.2856521739131 1021.5965579710145 778.8256521739131 1025.1965579710145M794.3656521739131 1027.4265579710145Q792.675652173913 1025.7665579710147 792.675652173913 1023.0165579710145T794.3756521739131 1018.5565579710145Q796.0856521739131 1016.8365579710145 798.7156521739131 1016.8365579710145Q800.8056521739131 1016.8365579710145 802.2356521739131 1018.1865579710146Q803.675652173913 1019.5365579710145 803.675652173913 1021.5765579710145Q803.675652173913 1022.5665579710145 802.1156521739131 1022.5665579710145H795.0456521739131Q795.0656521739131 1024.5465579710144 796.3256521739131 1025.8965579710148Q797.5856521739131 1027.2565579710144 799.4956521739131 1027.2565579710144Q800.765652173913 1027.2565579710144 801.9656521739131 1026.5065579710144Q802.5956521739131 1026.1165579710146 802.775652173913 1026.1165579710146T803.175652173913 1026.2965579710144Q803.405652173913 1026.4765579710147 803.405652173913 1026.7265579710147Q803.405652173913 1027.3965579710143 802.545652173913 1027.9665579710145T800.645652173913 1028.8065579710146Q799.6056521739131 1029.0865579710144 798.8256521739131 1029.0865579710144Q796.055652173913 1029.0865579710144 794.3656521739131 1027.4265579710145M801.425652173913 1021.2865579710145Q801.405652173913 1019.8765579710147 800.695652173913 1019.0065579710146Q799.9856521739131 1018.1265579710147 798.6256521739131 1018.1265579710147T796.2456521739131 1019.0965579710147Q795.2256521739131 1020.0765579710147 795.165652173913 1021.3365579710147H798.0256521739129Q799.925652173913 1021.3365579710147 801.425652173913 1021.2865579710148M815.345652173913 1028.756557971015L814.2956521739129 1028.7665579710147Q812.695652173913 1028.7665579710147 812.315652173913 1028.2765579710149Q812.145652173913 1028.0565579710146 812.145652173913 1027.7465579710147T812.3856521739131 1027.3165579710148Q812.6356521739131 1027.196557971015 812.935652173913 1027.176557971015Q813.235652173913 1027.1665579710148 813.475652173913 1026.986557971015Q813.715652173913 1026.8165579710148 813.715652173913 1026.426557971015V1020.3965579710149Q813.715652173913 1019.3065579710147 813.455652173913 1019.0465579710147Q813.195652173913 1018.7965579710147 813.015652173913 1018.7165579710148Q812.8456521739131 1018.6465579710147 812.465652173913 1018.5365579710148T811.845652173913 1018.3165579710147T811.605652173913 1017.9865579710148Q811.605652173913 1017.0165579710148 814.235652173913 1017.0165579710148Q815.345652173913 1017.0165579710148 815.645652173913 1017.3965579710147T815.945652173913 1019.1765579710146Q816.355652173913 1018.1265579710147 817.315652173913 1017.5265579710148T819.285652173913 1016.9265579710146Q820.285652173913 1016.9265579710146 820.945652173913 1017.3565579710147Q821.595652173913 1017.7965579710147 821.595652173913 1018.4565579710146Q821.595652173913 1019.1265579710147 821.165652173913 1019.5165579710145Q820.735652173913 1019.9165579710146 820.115652173913 1019.9165579710146T819.045652173913 1019.5865579710145Q818.605652173913 1019.2565579710146 818.465652173913 1018.7365579710146Q818.155652173913 1018.6865579710146 817.945652173913 1018.6865579710146Q816.0356521739129 1018.6865579710146 816.0356521739129 1023.0665579710145V1026.4265579710145Q816.0356521739129 1027.1365579710146 816.825652173913 1027.1765579710145T817.615652173913 1027.8065579710146Q817.615652173913 1028.4765579710147 816.885652173913 1028.6365579710146Q816.325652173913 1028.7565579710144 815.345652173913 1028.7565579710144M830.855652173913 1013.4365579710146Q830.855652173913 1012.8965579710147 831.375652173913 1012.4265579710146T832.505652173913 1011.9565579710146Q833.125652173913 1011.9565579710146 833.705652173913 1012.3365579710145T834.2856521739129 1013.3365579710145T833.7956521739129 1014.3865579710144Q833.3056521739129 1014.8065579710145 832.595652173913 1014.8065579710145Q831.895652173913 1014.8065579710145 831.375652173913 1014.4165579710144Q830.855652173913 1014.0165579710145 830.855652173913 1013.4365579710144M833.405652173913 1028.7565579710144L832.355652173913 1028.7665579710147Q830.755652173913 1028.7665579710147 830.375652173913 1028.2765579710144Q830.205652173913 1028.0565579710146 830.205652173913 1027.7465579710147T830.455652173913 1027.3165579710144Q830.695652173913 1027.1965579710145 830.995652173913 1027.1765579710145Q831.295652173913 1027.1665579710148 831.5356521739129 1026.9865579710145Q831.7856521739129 1026.8165579710144 831.7856521739129 1026.4265579710145V1019.8565579710145Q831.7856521739129 1018.7465579710146 830.915652173913 1018.6565579710144Q830.825652173913 1018.6465579710144 830.695652173913 1018.6365579710144T830.505652173913 1018.6165579710145Q830.435652173913 1018.6065579710145 830.345652173913 1018.5965579710145Q830.255652173913 1018.5765579710145 830.215652173913 1018.5465579710145Q830.175652173913 1018.5265579710145 830.125652173913 1018.4865579710146Q830.0356521739129 1018.4265579710146 830.0356521739129 1018.1365579710147Q830.0356521739129 1017.8565579710147 830.405652173913 1017.5465579710145Q831.095652173913 1016.9865579710146 832.255652173913 1016.9865579710146Q833.335652173913 1016.9865579710146 833.5256521739129 1017.0765579710147Q833.715652173913 1017.1565579710146 833.845652173913 1017.2565579710146Q834.105652173913 1017.4265579710146 834.105652173913 1017.9065579710146V1026.4265579710145Q834.105652173913 1027.1365579710146 834.885652173913 1027.1765579710145Q835.675652173913 1027.2165579710145 835.675652173913 1027.8065579710146Q835.675652173913 1028.4765579710147 834.945652173913 1028.6365579710146Q834.385652173913 1028.7565579710144 833.405652173913 1028.7565579710144M847.705652173913 1028.7665579710147L846.655652173913 1028.7765579710144Q845.065652173913 1028.7765579710144 844.685652173913 1028.2865579710146Q844.5156521739129 1028.0665579710144 844.5156521739129 1027.7565579710144T844.755652173913 1027.3265579710146T845.295652173913 1027.1865579710147Q845.595652173913 1027.1765579710145 845.845652173913 1026.9965579710147Q846.085652173913 1026.8265579710146 846.085652173913 1026.4365579710147V1019.4665579710146Q846.085652173913 1018.7565579710146 845.205652173913 1018.6065579710147Q844.595652173913 1018.5065579710146 844.465652173913 1018.3965579710147Q844.345652173913 1018.2765579710145 844.345652173913 1017.9765579710146T844.7656521739129 1017.4365579710146Q845.485652173913 1016.9965579710146 846.585652173913 1016.9965579710146Q847.675652173913 1016.9965579710146 847.985652173913 1017.3065579710145T848.295652173913 1018.6965579710146Q849.965652173913 1016.8065579710145 852.895652173913 1016.8065579710145Q855.2756521739129 1016.8065579710145 856.2756521739129 1018.1065579710145Q857.2656521739129 1019.4065579710144 857.2656521739129 1022.0365579710145V1026.4365579710143Q857.2656521739129 1027.1465579710143 858.055652173913 1027.1865579710143T858.845652173913 1027.8165579710144Q858.845652173913 1028.4765579710142 858.085652173913 1028.6465579710143Q857.5256521739129 1028.7665579710147 856.5356521739129 1028.7665579710147L855.485652173913 1028.7765579710144Q853.885652173913 1028.7765579710144 853.505652173913 1028.2865579710146Q853.335652173913 1028.0665579710144 853.335652173913 1027.7565579710144T853.585652173913 1027.3265579710146Q853.825652173913 1027.2065579710147 854.125652173913 1027.1865579710147Q854.425652173913 1027.1765579710145 854.665652173913 1026.9965579710147Q854.915652173913 1026.8265579710146 854.915652173913 1026.4365579710147V1022.8865579710147Q854.915652173913 1020.6065579710147 854.385652173913 1019.5565579710145Q853.8056521739129 1018.3765579710147 852.0356521739129 1018.3765579710147Q849.895652173913 1018.3765579710147 849.125652173913 1019.5165579710145Q848.405652173913 1020.5865579710147 848.405652173913 1022.9465579710146V1026.4365579710147Q848.405652173913 1027.1465579710148 849.195652173913 1027.1865579710147T849.985652173913 1027.8165579710144Q849.985652173913 1028.4865579710145 849.235652173913 1028.6465579710148Q848.695652173913 1028.7665579710147 847.705652173913 1028.7665579710147M878.225652173913 1021.1665579710146Q878.225652173913 1022.2765579710145 877.3856521739131 1023.1165579710147Q875.735652173913 1024.7665579710147 872.685652173913 1024.7665579710147Q872.085652173913 1024.7665579710147 871.415652173913 1024.6465579710148Q870.745652173913 1024.5365579710146 870.575652173913 1024.5065579710144V1024.4965579710147Q869.645652173913 1025.2765579710144 869.645652173913 1025.8665579710146Q869.645652173913 1026.3965579710148 870.165652173913 1026.5865579710148Q870.915652173913 1026.8465579710146 872.245652173913 1026.8765579710148Q873.575652173913 1026.8965579710148 874.315652173913 1026.9165579710148Q875.065652173913 1026.9365579710147 875.935652173913 1026.9965579710147Q876.795652173913 1027.0565579710146 877.455652173913 1027.2365579710145T878.685652173913 1027.7065579710147Q879.8656521739131 1028.3165579710148 879.8656521739131 1029.7765579710149Q879.8656521739131 1030.8765579710148 879.285652173913 1031.7265579710147Q878.715652173913 1032.5665579710148 877.745652173913 1033.0565579710146Q875.835652173913 1034.0365579710146 873.185652173913 1034.0365579710146Q870.8856521739131 1034.0365579710146 869.145652173913 1033.406557971015Q868.205652173913 1033.0665579710148 867.655652173913 1032.3965579710148Q867.105652173913 1031.736557971015 867.105652173913 1030.8065579710146Q867.105652173913 1029.0765579710146 868.855652173913 1028.136557971015Q868.3856521739131 1027.676557971015 868.225652173913 1027.2765579710149Q868.055652173913 1026.8765579710148 868.055652173913 1026.3365579710148T868.155652173913 1025.506557971015T868.455652173913 1024.966557971015Q868.725652173913 1024.656557971015 869.465652173913 1024.1065579710148Q868.315652173913 1023.5265579710148 867.705652173913 1022.8165579710147Q867.1056521739131 1022.1065579710147 867.1056521739131 1021.0065579710148Q867.1056521739131 1019.9165579710149 867.6156521739131 1019.1165579710149Q868.1156521739131 1018.306557971015 868.945652173913 1017.826557971015Q870.6356521739131 1016.8665579710149 872.705652173913 1016.8665579710149Q873.295652173913 1016.8665579710149 874.895652173913 1017.1665579710149Q876.5056521739131 1017.4665579710148 876.695652173913 1017.4665579710148Q877.785652173913 1017.4665579710148 877.965652173913 1016.3765579710147Q879.535652173913 1016.3765579710147 879.535652173913 1017.6265579710147Q879.535652173913 1018.2165579710148 879.175652173913 1018.5665579710147T878.3456521739131 1018.9165579710149T877.3356521739131 1018.8665579710149Q877.685652173913 1019.1765579710149 877.955652173913 1019.816557971015Q878.225652173913 1020.4665579710148 878.225652173913 1021.1665579710149M872.7556521739131 1017.9165579710149Q871.435652173913 1017.9165579710149 870.515652173913 1018.6865579710148T869.5956521739131 1020.7065579710148Q869.5956521739131 1021.9665579710148 870.545652173913 1022.776557971015Q871.485652173913 1023.576557971015 872.8556521739131 1023.576557971015T875.065652173913 1022.826557971015Q875.915652173913 1022.076557971015 875.915652173913 1020.8665579710149T874.995652173913 1018.7865579710148T872.755652173913 1017.9165579710149M872.965652173913 1032.616557971015Q874.8456521739131 1032.616557971015 875.825652173913 1032.216557971015Q876.795652173913 1031.8165579710148 877.175652173913 1031.2965579710149Q877.555652173913 1030.786557971015 877.555652173913 1030.056557971015Q877.555652173913 1028.556557971015 871.715652173913 1028.556557971015Q870.075652173913 1028.556557971015 870.075652173913 1028.5265579710149Q869.145652173913 1029.466557971015 869.145652173913 1030.3165579710148Q869.145652173913 1032.616557971015 872.965652173913 1032.616557971015M909.285652173913 1026.3765579710148Q909.8356521739131 1026.3765579710148 909.8356521739131 1026.886557971015Q909.8356521739131 1027.1665579710148 909.665652173913 1027.346557971015Q908.045652173913 1029.0865579710148 905.005652173913 1029.0865579710148T900.185652173913 1027.4365579710147Q898.415652173913 1025.786557971015 898.415652173913 1023.076557971015Q898.415652173913 1021.306557971015 899.275652173913 1019.8765579710149Q900.1356521739131 1018.4365579710148 901.6156521739131 1017.6365579710149Q903.0956521739131 1016.826557971015 904.905652173913 1016.826557971015Q907.435652173913 1016.826557971015 908.795652173913 1018.1365579710149Q909.515652173913 1018.826557971015 909.515652173913 1019.7565579710148Q909.515652173913 1020.3065579710147 909.0656521739131 1020.6865579710148Q908.6056521739131 1021.0665579710147 907.965652173913 1021.0665579710147Q907.3356521739131 1021.0665579710147 907.055652173913 1020.9565579710148Q906.965652173913 1019.5765579710147 906.485652173913 1018.8365579710147T904.8656521739131 1018.0965579710147Q903.0156521739129 1018.0965579710147 901.955652173913 1019.2865579710148Q900.905652173913 1020.4665579710148 900.905652173913 1022.4665579710148T902.255652173913 1025.946557971015Q903.595652173913 1027.426557971015 905.645652173913 1027.426557971015Q906.855652173913 1027.426557971015 908.6156521739131 1026.5665579710148Q908.995652173913 1026.3765579710148 909.285652173913 1026.3765579710148M921.475652173913 1028.756557971015L920.425652173913 1028.7665579710147Q918.825652173913 1028.7665579710147 918.445652173913 1028.2765579710149Q918.2756521739129 1028.0565579710146 918.2756521739129 1027.7465579710147T918.5156521739129 1027.3165579710148Q918.7656521739129 1027.196557971015 919.055652173913 1027.176557971015Q919.3556521739131 1027.1665579710148 919.6056521739131 1026.986557971015Q919.8456521739131 1026.8165579710148 919.8456521739131 1026.426557971015V1020.3965579710149Q919.8456521739131 1019.3065579710147 919.5856521739131 1019.0465579710147Q919.3256521739131 1018.7965579710147 919.145652173913 1018.7165579710148Q918.965652173913 1018.6465579710147 918.5856521739131 1018.5365579710148Q918.215652173913 1018.4265579710149 917.975652173913 1018.3165579710147T917.735652173913 1017.9865579710148Q917.735652173913 1017.0165579710148 920.3556521739131 1017.0165579710148Q921.475652173913 1017.0165579710148 921.765652173913 1017.3965579710147Q922.0656521739131 1017.7765579710148 922.0656521739131 1019.1765579710146Q922.4856521739131 1018.1265579710147 923.445652173913 1017.5265579710148Q924.395652173913 1016.9265579710146 925.405652173913 1016.9265579710146T927.0656521739131 1017.3565579710147Q927.7256521739131 1017.7965579710147 927.7256521739131 1018.4565579710146Q927.7256521739131 1019.1265579710147 927.2956521739131 1019.5165579710145Q926.8656521739131 1019.9165579710146 926.2456521739131 1019.9165579710146T925.175652173913 1019.5865579710145T924.5956521739131 1018.7365579710146Q924.2756521739132 1018.6865579710146 924.0756521739131 1018.6865579710146Q922.165652173913 1018.6865579710146 922.165652173913 1023.0665579710145V1026.4265579710145Q922.165652173913 1027.1365579710146 922.9556521739131 1027.1765579710145T923.7456521739132 1027.8065579710146Q923.7456521739132 1028.4765579710147 923.0056521739132 1028.6365579710146Q922.4456521739131 1028.7565579710144 921.4756521739132 1028.7565579710144M936.8556521739131 1027.4265579710145Q935.1656521739131 1025.7665579710147 935.1656521739131 1023.0165579710145T936.8656521739131 1018.5565579710145Q938.5656521739131 1016.8365579710145 941.2056521739131 1016.8365579710145Q943.2956521739131 1016.8365579710145 944.7256521739131 1018.1865579710146Q946.165652173913 1019.5365579710145 946.165652173913 1021.5765579710145Q946.165652173913 1022.5665579710145 944.5956521739131 1022.5665579710145H937.5356521739131Q937.5556521739131 1024.5465579710144 938.8156521739131 1025.8965579710148Q940.0656521739131 1027.2565579710144 941.9856521739131 1027.2565579710144Q943.2556521739131 1027.2565579710144 944.4556521739131 1026.5065579710144Q945.0856521739131 1026.1165579710146 945.2656521739132 1026.1165579710146T945.665652173913 1026.2965579710144Q945.895652173913 1026.4765579710147 945.895652173913 1026.7265579710147Q945.895652173913 1027.3965579710143 945.0356521739131 1027.9665579710145T943.1356521739131 1028.8065579710146Q942.0956521739131 1029.0865579710144 941.3156521739131 1029.0865579710144Q938.5456521739131 1029.0865579710144 936.8556521739131 1027.4265579710145M943.9156521739131 1021.2865579710145Q943.8856521739132 1019.8765579710147 943.1856521739131 1019.0065579710146Q942.4756521739132 1018.1265579710147 941.1156521739131 1018.1265579710147T938.7356521739132 1019.0965579710147Q937.7156521739132 1020.0765579710147 937.6556521739132 1021.3365579710147H940.5056521739132Q942.4156521739133 1021.3365579710147 943.9156521739133 1021.2865579710148M956.4956521739132 1021.0165579710148Q956.0356521739131 1021.0165579710148 955.4656521739132 1020.6565579710146T954.8956521739133 1019.7165579710146T955.2256521739132 1018.6265579710147Q955.5556521739131 1018.1065579710147 956.0856521739132 1017.7865579710145Q956.6056521739132 1017.4665579710146 957.3056521739132 1017.2465579710146Q958.5756521739132 1016.8365579710147 960.0356521739133 1016.8365579710147Q962.5056521739133 1016.8365579710147 963.6256521739133 1017.9365579710146Q964.7356521739132 1019.0265579710148 964.7356521739132 1021.5365579710148L964.7256521739132 1025.1465579710148Q964.7256521739132 1026.4465579710145 965.0556521739132 1026.7765579710149Q965.1456521739133 1026.8665579710146 965.5956521739133 1026.9965579710147Q966.8356521739133 1027.3865579710146 966.8356521739133 1027.5965579710146Q966.8356521739133 1028.8765579710148 964.2156521739132 1028.8765579710148Q963.2256521739132 1028.8765579710148 962.9256521739132 1028.4365579710147T962.6056521739133 1026.8365579710148Q962.0556521739132 1027.8265579710146 960.9256521739132 1028.4365579710147Q959.8056521739132 1029.0465579710149 958.5256521739133 1029.0465579710149T956.3556521739133 1028.7165579710145Q955.4556521739132 1028.3865579710146 954.9056521739133 1027.6465579710148Q954.3456521739133 1026.9165579710148 954.3456521739133 1026.0565579710146Q954.3456521739133 1025.2065579710147 954.5456521739133 1024.6865579710147Q954.7356521739132 1024.1665579710148 955.0356521739133 1023.8065579710145Q955.3256521739133 1023.4565579710146 955.8356521739133 1023.1765579710146Q956.3356521739133 1022.8965579710147 956.7756521739133 1022.7265579710146Q957.2156521739132 1022.5665579710145 957.9156521739133 1022.4365579710146Q958.9356521739132 1022.2365579710146 959.6356521739133 1022.1565579710146T960.3556521739133 1022.0665579710145Q960.4256521739132 1022.0565579710145 961.1956521739132 1021.9765579710146Q961.9556521739132 1021.8965579710144 962.3956521739133 1021.6465579710144Q962.3956521739133 1019.3265579710145 961.7756521739133 1018.6265579710144Q961.2256521739132 1018.0165579710145 959.9656521739132 1018.0165579710145T958.0756521739133 1018.6565579710144T957.4456521739132 1020.6865579710144L957.4656521739132 1020.9565579710144Q956.9456521739132 1021.0165579710143 956.4956521739132 1021.0165579710143M962.3956521739133 1022.7465579710143Q961.5656521739132 1023.0565579710143 960.5156521739132 1023.1665579710144Q959.4756521739132 1023.2865579710143 958.8756521739133 1023.4465579710144T957.8756521739133 1023.8365579710143Q956.9456521739132 1024.3765579710143 956.9456521739132 1025.6765579710145Q956.9456521739132 1027.7765579710144 959.3956521739133 1027.7765579710144Q961.5056521739132 1027.7765579710144 962.0656521739132 1025.7665579710142Q962.3956521739133 1024.6165579710146 962.3956521739133 1022.7465579710143M975.7556521739132 1025.4765579710142V1018.6465579710144L975.0156521739132 1018.6565579710144Q974.5656521739132 1018.6565579710144 974.3556521739132 1018.5765579710143Q974.1456521739133 1018.4865579710143 974.1456521739133 1018.2165579710144Q974.1456521739133 1017.9365579710144 974.3856521739133 1017.7165579710144Q974.6256521739133 1017.4865579710143 974.9256521739132 1017.3665579710142Q975.7756521739133 1017.0265579710143 975.9356521739132 1016.7865579710143T976.4256521739132 1015.7465579710143Q977.2456521739132 1013.7265579710144 977.7956521739133 1013.7265579710144Q978.0756521739132 1013.7265579710144 978.1256521739133 1014.3365579710143Q978.1656521739133 1014.9365579710144 978.1656521739133 1015.2565579710143Q978.1756521739132 1015.5765579710143 978.1656521739133 1016.1965579710144Q978.1556521739133 1016.8265579710143 978.1556521739133 1017.0765579710143L981.0556521739132 1017.0865579710143Q981.4856521739132 1017.0865579710143 981.7756521739133 1017.2965579710143Q982.0656521739133 1017.5165579710143 982.0656521739133 1017.8665579710145T981.7856521739134 1018.4165579710144Q981.4956521739133 1018.6065579710145 981.0656521739133 1018.6065579710145H978.1556521739133L978.1356521739133 1024.8465579710146Q978.1356521739133 1027.4965579710142 979.4656521739132 1027.4965579710142Q979.8356521739133 1027.4965579710142 980.5556521739132 1027.2765579710144Q981.2756521739133 1027.0465579710144 981.4956521739132 1027.0465579710144Q981.9956521739132 1027.0465579710144 981.9956521739132 1027.6165579710146Q981.9956521739132 1028.0765579710146 980.8156521739132 1028.5265579710144T978.4056521739133 1028.9765579710142Q977.1656521739133 1028.9765579710142 976.4556521739132 1028.0065579710144Q975.7556521739132 1027.0465579710144 975.7556521739132 1025.4765579710142M996.2856521739131 1029.0565579710146Q993.5256521739132 1029.0565579710146 991.8456521739132 1027.3165579710144T990.1656521739133 1022.9065579710144Q990.1656521739133 1021.1265579710144 991.0556521739131 1019.7365579710146T993.4656521739132 1017.6065579710145T996.8456521739132 1016.8665579710145Q999.5356521739131 1016.8665579710145 1001.2856521739131 1018.5365579710145Q1003.0256521739132 1020.2065579710144 1003.0256521739132 1022.8565579710145Q1003.0256521739132 1024.6865579710147 1002.1256521739133 1026.1165579710146Q1001.2356521739132 1027.5365579710146 999.7056521739132 1028.2965579710144Q998.1856521739132 1029.0565579710146 996.2856521739131 1029.0565579710146M996.7856521739131 1027.7065579710143Q998.6056521739132 1027.7065579710143 999.6256521739132 1026.4765579710142Q1000.6456521739132 1025.2365579710145 1000.6456521739132 1023.1865579710144T999.4756521739132 1019.6465579710144T996.4656521739132 1018.1565579710144T993.6356521739132 1019.4165579710144Q992.6556521739132 1020.6765579710144 992.6556521739132 1022.7165579710144Q992.6556521739132 1024.7465579710142 993.8056521739131 1026.2265579710142Q994.9656521739132 1027.7065579710143 996.7856521739131 1027.7065579710143M1014.3756521739131 1028.7565579710144L1013.3256521739131 1028.7665579710142Q1011.7256521739131 1028.7665579710142 1011.3456521739131 1028.2765579710144Q1011.175652173913 1028.0565579710142 1011.175652173913 1027.7465579710142T1011.425652173913 1027.3165579710144Q1011.665652173913 1027.1965579710145 1011.9656521739131 1027.1765579710145Q1012.2656521739132 1027.1665579710143 1012.5056521739132 1026.9865579710145Q1012.7556521739132 1026.8165579710144 1012.7556521739132 1026.4265579710145V1020.3965579710144Q1012.7556521739132 1019.3065579710145 1012.4956521739132 1019.0465579710145Q1012.2256521739132 1018.7965579710145 1012.0556521739131 1018.7165579710144Q1011.8756521739131 1018.6465579710144 1011.4956521739132 1018.5365579710145T1010.8756521739131 1018.3165579710145Q1010.645652173913 1018.2065579710144 1010.645652173913 1017.9865579710143Q1010.645652173913 1017.0165579710143 1013.2656521739132 1017.0165579710143Q1014.3756521739131 1017.0165579710143 1014.6756521739131 1017.3965579710144T1014.9756521739132 1019.1765579710144Q1015.3856521739132 1018.1265579710144 1016.3456521739131 1017.5265579710143T1018.3156521739131 1016.9265579710144T1019.9756521739132 1017.3565579710142Q1020.6256521739132 1017.7965579710143 1020.6256521739132 1018.4565579710144Q1020.6256521739132 1019.1265579710142 1020.1956521739132 1019.5165579710143Q1019.7756521739132 1019.9165579710142 1019.1456521739132 1019.9165579710142Q1018.5256521739132 1019.9165579710142 1018.0856521739131 1019.5865579710143Q1017.6356521739132 1019.2565579710141 1017.5056521739132 1018.7365579710141Q1017.1856521739132 1018.6865579710142 1016.9756521739132 1018.6865579710142Q1015.0756521739132 1018.6865579710142 1015.0756521739132 1023.0665579710143V1026.426557971014Q1015.0756521739132 1027.136557971014 1015.8556521739132 1027.176557971014Q1016.6456521739133 1027.216557971014 1016.6456521739133 1027.8065579710142Q1016.6456521739133 1028.4765579710142 1015.9156521739133 1028.636557971014Q1015.3556521739132 1028.7565579710144 1014.3756521739132 1028.7565579710144M1033.835652173913 1027.6465579710143Q1036.585652173913 1027.6465579710143 1036.585652173913 1025.9565579710143Q1036.585652173913 1024.6865579710143 1034.105652173913 1023.9665579710141L1032.9856521739132 1023.6565579710142Q1031.7456521739132 1023.3265579710143 1031.3156521739131 1023.1565579710142Q1030.2456521739132 1022.7365579710143 1029.5056521739132 1021.9465579710142Q1028.7556521739132 1021.1465579710142 1028.7556521739132 1020.0665579710143Q1028.7556521739132 1018.6565579710142 1030.095652173913 1017.7365579710141Q1031.425652173913 1016.8065579710143 1033.325652173913 1016.8065579710143Q1035.165652173913 1016.8065579710143 1036.7756521739132 1017.4765579710141Q1037.5656521739131 1017.8065579710143 1038.0656521739131 1018.3965579710142Q1038.5556521739131 1018.9765579710141 1038.5556521739131 1019.6165579710142Q1038.5556521739131 1020.2465579710141 1038.0556521739131 1020.6265579710142Q1037.5456521739131 1021.0065579710141 1037.0056521739132 1021.0065579710141Q1036.4556521739132 1021.0065579710141 1036.2856521739131 1020.8965579710142Q1036.105652173913 1020.7965579710141 1036.105652173913 1020.4165579710142Q1036.105652173913 1018.066557971014 1033.605652173913 1018.066557971014Q1032.5656521739131 1018.066557971014 1031.7956521739131 1018.5165579710141Q1031.0256521739132 1018.9765579710141 1031.0256521739132 1019.7065579710141Q1031.0256521739132 1020.8565579710142 1033.415652173913 1021.5265579710143L1034.335652173913 1021.7665579710143Q1034.875652173913 1021.9065579710142 1035.325652173913 1022.0465579710143T1036.2656521739132 1022.3765579710142Q1036.7656521739132 1022.5665579710143 1037.3156521739131 1022.8765579710142Q1037.865652173913 1023.1765579710142 1038.2056521739132 1023.5265579710143Q1038.9956521739132 1024.3365579710144 1038.9956521739132 1025.4765579710142T1038.2256521739132 1027.4465579710145Q1036.7056521739132 1029.0765579710142 1033.835652173913 1029.0765579710142Q1031.9656521739132 1029.0765579710142 1030.3956521739133 1028.4665579710145Q1029.585652173913 1028.1465579710143 1029.095652173913 1027.5865579710144T1028.605652173913 1026.386557971014Q1028.605652173913 1025.7565579710144 1029.0156521739132 1025.406557971014Q1029.4156521739133 1025.0565579710142 1029.9256521739132 1025.0565579710142Q1030.4456521739132 1025.0565579710142 1030.8056521739131 1025.3765579710143Q1031.1656521739133 1025.6865579710143 1031.1656521739133 1026.156557971014T1031.075652173913 1027.1665579710143Q1032.3656521739133 1027.6465579710143 1033.8356521739133 1027.6465579710143M1049.575652173913 1028.7665579710142Q1049.075652173913 1028.7665579710142 1048.5656521739133 1028.3765579710143Q1048.0456521739134 1027.9865579710145 1048.0456521739134 1027.3665579710141T1048.6056521739133 1026.3365579710144Q1049.1656521739133 1025.9165579710143 1049.7356521739132 1025.9165579710143Q1050.3156521739133 1025.9165579710143 1050.8956521739133 1026.2965579710144T1051.4756521739132 1027.2065579710143Q1051.4756521739132 1028.2965579710144 1050.3656521739133 1028.6665579710143Q1050.075652173913 1028.7665579710142 1049.575652173913 1028.7665579710142M1072.5856521739133 1013.4365579710144Q1072.5856521739133 1012.8965579710144 1073.1056521739133 1012.4265579710144T1074.2356521739132 1011.9565579710144Q1074.8556521739133 1011.9565579710144 1075.4356521739132 1012.3365579710143T1076.0156521739132 1013.3365579710143T1075.5256521739132 1014.3865579710142Q1075.0356521739131 1014.8065579710143 1074.325652173913 1014.8065579710143Q1073.6256521739133 1014.8065579710143 1073.105652173913 1014.4165579710142Q1072.585652173913 1014.0165579710143 1072.585652173913 1013.4365579710142M1075.135652173913 1028.7565579710144L1074.085652173913 1028.7665579710142Q1072.4856521739132 1028.7665579710142 1072.105652173913 1028.2765579710144Q1071.9356521739132 1028.0565579710142 1071.9356521739132 1027.7465579710142T1072.1856521739132 1027.3165579710144Q1072.425652173913 1027.1965579710145 1072.7256521739132 1027.1765579710145Q1073.0256521739132 1027.1665579710143 1073.2656521739132 1026.9865579710145Q1073.5156521739132 1026.8165579710144 1073.5156521739132 1026.4265579710145V1019.8565579710142Q1073.5156521739132 1018.7465579710143 1072.6456521739133 1018.6565579710142Q1072.5556521739131 1018.6465579710142 1072.425652173913 1018.6365579710142Q1072.2856521739131 1018.6265579710142 1072.2256521739132 1018.6165579710142T1072.075652173913 1018.5965579710142Q1071.9856521739132 1018.5765579710143 1071.9456521739132 1018.5465579710143Q1071.8956521739133 1018.5265579710143 1071.8556521739133 1018.4865579710143Q1071.7656521739132 1018.4265579710144 1071.7656521739132 1018.1365579710144Q1071.7656521739132 1017.8565579710145 1072.1356521739133 1017.5465579710143Q1072.825652173913 1016.9865579710143 1073.9856521739132 1016.9865579710143Q1075.0656521739133 1016.9865579710143 1075.2556521739132 1017.0765579710145Q1075.4356521739132 1017.1565579710144 1075.575652173913 1017.2565579710143Q1075.8356521739133 1017.4265579710144 1075.8356521739133 1017.9065579710144V1026.4265579710145Q1075.8356521739133 1027.1365579710146 1076.615652173913 1027.1765579710145Q1077.4056521739133 1027.2165579710145 1077.4056521739133 1027.8065579710142Q1077.4056521739133 1028.4765579710142 1076.6756521739132 1028.6365579710146Q1076.115652173913 1028.7565579710144 1075.135652173913 1028.7565579710144M1089.4256521739132 1028.7665579710142L1088.3756521739133 1028.7765579710144Q1086.7756521739132 1028.7765579710144 1086.405652173913 1028.2865579710142Q1086.2356521739132 1028.0665579710144 1086.2356521739132 1027.7565579710144T1086.4756521739132 1027.3265579710146T1087.0156521739132 1027.1865579710143Q1087.3156521739131 1027.1765579710145 1087.5656521739131 1026.9965579710142Q1087.8056521739131 1026.8265579710146 1087.8056521739131 1026.4365579710143V1019.4665579710144Q1087.8056521739131 1018.7565579710143 1086.9256521739132 1018.6065579710145Q1086.3156521739131 1018.5065579710143 1086.1856521739132 1018.3965579710144Q1086.0556521739131 1018.2765579710143 1086.0556521739131 1017.9765579710144T1086.4856521739132 1017.4365579710144Q1087.2056521739132 1016.9965579710143 1088.2956521739131 1016.9965579710143Q1089.3956521739133 1016.9965579710143 1089.7056521739132 1017.3065579710143T1090.0156521739132 1018.6965579710144Q1091.6856521739132 1016.8065579710143 1094.6156521739133 1016.8065579710143Q1096.9956521739132 1016.8065579710143 1097.9956521739132 1018.1065579710142Q1098.9856521739132 1019.4065579710142 1098.9856521739132 1022.0365579710143V1026.4365579710143Q1098.9856521739132 1027.1465579710143 1099.7756521739134 1027.1865579710143T1100.5656521739133 1027.8165579710144Q1100.5656521739133 1028.4765579710142 1099.8056521739134 1028.6465579710143Q1099.2456521739132 1028.7665579710142 1098.2556521739134 1028.7665579710142L1097.2056521739132 1028.7765579710144Q1095.6056521739133 1028.7765579710144 1095.2256521739132 1028.2865579710142Q1095.0556521739131 1028.0665579710144 1095.0556521739131 1027.7565579710144T1095.3056521739131 1027.3265579710142Q1095.5456521739134 1027.2065579710143 1095.8456521739133 1027.1865579710143Q1096.1456521739133 1027.1765579710145 1096.3856521739133 1026.9965579710142Q1096.6356521739133 1026.8265579710142 1096.6356521739133 1026.4365579710143V1022.8865579710144Q1096.6356521739133 1020.6065579710145 1096.1056521739133 1019.5565579710143Q1095.5156521739134 1018.3765579710144 1093.7456521739132 1018.3765579710144Q1091.6156521739133 1018.3765579710144 1090.8456521739133 1019.5165579710143Q1090.1256521739133 1020.5865579710145 1090.1256521739133 1022.9465579710144V1026.4365579710143Q1090.1256521739133 1027.1465579710143 1090.9156521739133 1027.1865579710143Q1091.6956521739132 1027.2265579710142 1091.6956521739132 1027.8165579710144Q1091.6956521739132 1028.4865579710145 1090.9556521739132 1028.6465579710143Q1090.4156521739133 1028.7665579710142 1089.4256521739132 1028.7665579710142M1114.1456521739133 1027.6465579710143Q1116.8856521739133 1027.6465579710143 1116.8856521739133 1025.9565579710143Q1116.8856521739133 1024.6865579710143 1114.4156521739133 1023.9665579710144Q1113.9456521739132 1023.8365579710143 1113.2856521739134 1023.6565579710144Q1112.0556521739134 1023.3265579710143 1111.6256521739133 1023.1565579710144Q1110.5556521739134 1022.7365579710143 1109.8056521739134 1021.9465579710144Q1109.0656521739133 1021.1465579710144 1109.0656521739133 1020.0665579710143Q1109.0656521739133 1018.6565579710144 1110.4056521739133 1017.7365579710143Q1111.7356521739132 1016.8065579710143 1113.6356521739133 1016.8065579710143Q1115.4756521739132 1016.8065579710143 1117.0856521739133 1017.4765579710144Q1117.8756521739133 1017.8065579710143 1118.3756521739133 1018.3965579710142Q1118.8656521739133 1018.9765579710144 1118.8656521739133 1019.6165579710142Q1118.8656521739133 1020.2465579710143 1118.3656521739133 1020.6265579710142Q1117.8556521739133 1021.0065579710143 1117.3156521739133 1021.0065579710143Q1116.7656521739132 1021.0065579710143 1116.5956521739133 1020.8965579710142Q1116.4156521739133 1020.7965579710143 1116.4156521739133 1020.4165579710142Q1116.4156521739133 1018.0665579710143 1113.9156521739133 1018.0665579710143Q1112.8756521739133 1018.0665579710143 1112.1056521739133 1018.5165579710143Q1111.3356521739133 1018.9765579710144 1111.3356521739133 1019.7065579710144Q1111.3356521739133 1020.8565579710142 1113.7256521739132 1021.5265579710143L1114.6456521739133 1021.7665579710143Q1115.1856521739132 1021.9065579710144 1115.6356521739133 1022.0465579710143T1116.5756521739133 1022.3765579710144Q1117.0756521739133 1022.5665579710145 1117.6256521739133 1022.8765579710144Q1118.1756521739132 1023.1765579710144 1118.5156521739132 1023.5265579710143Q1119.3056521739134 1024.3365579710144 1119.3056521739134 1025.4765579710142T1118.5356521739134 1027.4465579710145Q1117.0156521739134 1029.0765579710146 1114.1456521739133 1029.0765579710146Q1112.2756521739134 1029.0765579710146 1110.7056521739132 1028.4665579710145Q1109.8956521739133 1028.1465579710143 1109.4056521739133 1027.5865579710144T1108.9156521739133 1026.3865579710146Q1108.9156521739133 1025.7565579710144 1109.3256521739133 1025.4065579710145Q1109.7256521739132 1025.0565579710142 1110.2356521739134 1025.0565579710142T1111.1056521739133 1025.3765579710143Q1111.4756521739134 1025.6865579710143 1111.4756521739134 1026.1565579710145T1111.3856521739135 1027.1665579710143Q1112.6756521739135 1027.6465579710143 1114.1456521739133 1027.6465579710143M1138.7656521739134 1023.1365579710144Q1138.7656521739134 1020.3165579710143 1137.1256521739133 1019.0365579710143Q1136.2756521739134 1018.3765579710144 1135.0856521739133 1018.3765579710144Q1131.5856521739133 1018.3765579710144 1131.5856521739133 1022.3165579710145V1026.3365579710144Q1132.5756521739133 1027.6165579710146 1134.9956521739134 1027.6165579710146Q1136.7456521739134 1027.6165579710146 1137.7556521739134 1026.3565579710144Q1138.7656521739134 1025.0865579710144 1138.7656521739134 1023.1365579710144M1130.8856521739133 1033.7665579710142L1129.8356521739133 1033.7865579710142Q1128.2456521739134 1033.7865579710142 1127.8656521739133 1033.2965579710144Q1127.6956521739132 1033.0765579710142 1127.6956521739132 1032.7665579710142T1127.9356521739132 1032.3265579710142Q1128.1756521739132 1032.2065579710143 1128.4756521739132 1032.1965579710145T1129.0256521739134 1032.0065579710144Q1129.2656521739134 1031.8265579710142 1129.2656521739134 1031.4365579710143V1020.4265579710142Q1129.2656521739134 1019.5465579710143 1129.1356521739133 1019.2165579710141Q1129.0056521739134 1018.8765579710142 1128.5556521739134 1018.7065579710141Q1128.5056521739134 1018.6865579710142 1128.0656521739133 1018.5865579710143Q1127.1556521739133 1018.3665579710142 1127.1556521739133 1017.9765579710141Q1127.1556521739133 1017.0265579710141 1129.6056521739133 1017.0265579710141Q1130.6456521739133 1017.0265579710141 1131.0656521739133 1017.2665579710141Q1131.4756521739132 1017.5065579710141 1131.4756521739132 1018.316557971014Q1131.4756521739132 1018.5565579710141 1131.4656521739132 1018.6865579710142Q1132.4056521739133 1017.7665579710141 1133.3556521739133 1017.2865579710141Q1134.3056521739134 1016.816557971014 1135.7856521739131 1016.816557971014T1138.5456521739131 1017.6465579710142Q1139.835652173913 1018.4765579710141 1140.4956521739132 1019.8365579710143T1141.1556521739133 1022.8665579710142Q1141.1556521739133 1025.5165579710142 1139.4256521739132 1027.236557971014Q1137.6856521739132 1028.9565579710143 1135.0156521739132 1028.9565579710143Q1133.5156521739132 1028.9565579710143 1131.5856521739133 1027.9765579710142V1031.4365579710143Q1131.5856521739133 1032.1465579710143 1132.3756521739133 1032.1865579710143Q1133.1556521739133 1032.236557971014 1133.1556521739133 1032.8165579710144Q1133.1556521739133 1033.486557971014 1132.4156521739133 1033.6465579710143Q1131.8756521739133 1033.7665579710142 1130.8856521739133 1033.7665579710142M1150.4756521739132 1013.4365579710142Q1150.4756521739132 1012.8965579710142 1150.9956521739132 1012.4265579710142T1152.1356521739133 1011.9565579710141Q1152.7456521739132 1011.9565579710141 1153.3256521739133 1012.3365579710143T1153.9056521739133 1013.3365579710143T1153.4256521739132 1014.3865579710142Q1152.9356521739132 1014.8065579710141 1152.2256521739132 1014.8065579710141T1150.9956521739132 1014.4165579710142Q1150.4756521739132 1014.0165579710141 1150.4756521739132 1013.4365579710142M1153.0356521739131 1028.756557971014L1151.9856521739132 1028.7665579710142Q1150.3856521739133 1028.7665579710142 1150.0056521739132 1028.276557971014Q1149.8356521739133 1028.0565579710142 1149.8356521739133 1027.7465579710142T1150.0756521739133 1027.3165579710144Q1150.3256521739133 1027.196557971014 1150.6156521739133 1027.176557971014Q1150.9156521739133 1027.1665579710143 1151.1656521739133 1026.986557971014Q1151.4056521739133 1026.8165579710144 1151.4056521739133 1026.426557971014V1019.8565579710142Q1151.4056521739133 1018.7465579710141 1150.5456521739131 1018.6565579710142Q1150.4556521739132 1018.6465579710142 1150.325652173913 1018.6365579710142Q1150.1856521739132 1018.6265579710142 1150.125652173913 1018.6165579710142T1149.9756521739132 1018.5965579710142Q1149.885652173913 1018.5765579710143 1149.835652173913 1018.5465579710143Q1149.7956521739131 1018.5265579710143 1149.7456521739132 1018.4865579710143Q1149.665652173913 1018.4265579710144 1149.665652173913 1018.1365579710142Q1149.665652173913 1017.8565579710142 1150.0256521739132 1017.5465579710143Q1150.7256521739132 1016.9865579710143 1151.885652173913 1016.9865579710143Q1152.9556521739132 1016.9865579710143 1153.145652173913 1017.0765579710143Q1153.335652173913 1017.1565579710144 1153.4656521739132 1017.2565579710143Q1153.7256521739132 1017.4265579710142 1153.7256521739132 1017.9065579710142V1026.426557971014Q1153.7256521739132 1027.136557971014 1154.5156521739132 1027.176557971014T1155.3056521739131 1027.8065579710142Q1155.3056521739131 1028.4765579710142 1154.5656521739131 1028.636557971014Q1154.0056521739132 1028.7565579710144 1153.0356521739131 1028.7565579710144M1167.365652173913 1028.7565579710144L1166.3156521739131 1028.7665579710142Q1164.7156521739132 1028.7665579710142 1164.335652173913 1028.2765579710144Q1164.1656521739133 1028.0565579710142 1164.1656521739133 1027.7465579710142T1164.4056521739133 1027.3165579710144Q1164.6556521739133 1027.1965579710145 1164.9556521739132 1027.1765579710145Q1165.2456521739132 1027.1665579710143 1165.4956521739132 1026.9865579710145Q1165.7356521739132 1026.8165579710144 1165.7356521739132 1026.4265579710145V1020.3965579710144Q1165.7356521739132 1019.3065579710143 1165.4756521739132 1019.0465579710143Q1165.2156521739132 1018.7965579710143 1165.0356521739131 1018.7165579710144Q1164.855652173913 1018.6465579710142 1164.4856521739132 1018.5365579710143Q1164.105652173913 1018.4265579710144 1163.865652173913 1018.3165579710143T1163.625652173913 1017.9865579710143Q1163.625652173913 1017.0165579710143 1166.2556521739132 1017.0165579710143Q1167.365652173913 1017.0165579710143 1167.665652173913 1017.3965579710142Q1167.955652173913 1017.7765579710143 1167.955652173913 1019.1765579710142Q1168.375652173913 1018.1265579710142 1169.335652173913 1017.5265579710143T1171.2956521739131 1016.9265579710142Q1172.3056521739131 1016.9265579710142 1172.955652173913 1017.3565579710142Q1173.615652173913 1017.7965579710143 1173.615652173913 1018.4565579710141Q1173.615652173913 1019.1265579710142 1173.185652173913 1019.5165579710141Q1172.7556521739132 1019.9165579710142 1172.135652173913 1019.9165579710142T1171.0656521739131 1019.586557971014Q1170.625652173913 1019.2565579710141 1170.485652173913 1018.7365579710141Q1170.165652173913 1018.6865579710142 1169.965652173913 1018.6865579710142Q1168.0556521739131 1018.6865579710142 1168.0556521739131 1023.066557971014V1026.426557971014Q1168.0556521739131 1027.136557971014 1168.845652173913 1027.176557971014T1169.635652173913 1027.8065579710142Q1169.635652173913 1028.4765579710142 1168.895652173913 1028.636557971014Q1168.335652173913 1028.756557971014 1167.365652173913 1028.756557971014M1182.875652173913 1013.4365579710142Q1182.875652173913 1012.8965579710142 1183.395652173913 1012.4265579710142Q1183.905652173913 1011.9565579710141 1184.525652173913 1011.9565579710141T1185.725652173913 1012.336557971014T1186.3056521739131 1013.336557971014T1185.8156521739131 1014.386557971014Q1185.325652173913 1014.8065579710141 1184.615652173913 1014.8065579710141T1183.395652173913 1014.416557971014Q1182.875652173913 1014.0165579710141 1182.875652173913 1013.4365579710139M1185.425652173913 1028.756557971014L1184.375652173913 1028.7665579710142Q1182.775652173913 1028.7665579710142 1182.395652173913 1028.276557971014Q1182.225652173913 1028.0565579710142 1182.225652173913 1027.7465579710142T1182.465652173913 1027.316557971014Q1182.715652173913 1027.196557971014 1183.015652173913 1027.176557971014Q1183.315652173913 1027.1665579710143 1183.555652173913 1026.986557971014Q1183.795652173913 1026.816557971014 1183.795652173913 1026.426557971014V1019.856557971014Q1183.795652173913 1018.7465579710141 1182.935652173913 1018.656557971014Q1182.8456521739129 1018.646557971014 1182.715652173913 1018.636557971014Q1182.5756521739129 1018.626557971014 1182.515652173913 1018.616557971014T1182.3656521739128 1018.596557971014Q1182.275652173913 1018.576557971014 1182.235652173913 1018.5465579710141Q1182.185652173913 1018.5265579710141 1182.1356521739128 1018.4865579710141Q1182.055652173913 1018.4265579710142 1182.055652173913 1018.1365579710142Q1182.055652173913 1017.8565579710142 1182.4256521739128 1017.5465579710141Q1183.1156521739128 1016.9865579710141 1184.275652173913 1016.9865579710141Q1185.3556521739129 1016.9865579710141 1185.535652173913 1017.0765579710143Q1185.725652173913 1017.1565579710142 1185.8656521739128 1017.2565579710141Q1186.1156521739128 1017.4265579710142 1186.1156521739128 1017.9065579710142V1026.426557971014Q1186.1156521739128 1027.136557971014 1186.9056521739128 1027.176557971014T1187.6956521739128 1027.8065579710142Q1187.6956521739128 1028.4765579710142 1186.9656521739128 1028.636557971014Q1186.4056521739128 1028.756557971014 1185.4256521739128 1028.756557971014M1199.7156521739128 1028.7665579710142L1198.6656521739128 1028.776557971014Q1197.065652173913 1028.776557971014 1196.6956521739128 1028.2865579710142Q1196.515652173913 1028.066557971014 1196.515652173913 1027.756557971014T1196.765652173913 1027.3265579710142Q1197.005652173913 1027.2065579710143 1197.305652173913 1027.1865579710143Q1197.6056521739129 1027.176557971014 1197.8556521739129 1026.9965579710142Q1198.0956521739129 1026.8265579710142 1198.0956521739129 1026.4365579710143V1019.4665579710141Q1198.0956521739129 1018.7565579710141 1197.2156521739128 1018.6065579710142Q1196.6056521739129 1018.5065579710141 1196.4756521739127 1018.3965579710142Q1196.3456521739129 1018.2765579710141 1196.3456521739129 1017.9765579710141T1196.7756521739127 1017.4365579710142Q1197.4956521739127 1016.9965579710141 1198.5856521739126 1016.9965579710141Q1199.6856521739128 1016.9965579710141 1199.9956521739127 1017.3065579710141T1200.3056521739127 1018.6965579710142Q1201.9756521739125 1016.8065579710141 1204.9056521739126 1016.8065579710141Q1207.2856521739127 1016.8065579710141 1208.2856521739127 1018.106557971014Q1209.2756521739127 1019.406557971014 1209.2756521739127 1022.0365579710141V1026.4365579710138Q1209.2756521739127 1027.1465579710139 1210.0656521739127 1027.1865579710138T1210.8556521739126 1027.816557971014Q1210.8556521739126 1028.4765579710138 1210.0956521739126 1028.6465579710139Q1209.5356521739127 1028.7665579710142 1208.5456521739127 1028.7665579710142L1207.4956521739127 1028.776557971014Q1205.8956521739126 1028.776557971014 1205.5156521739127 1028.2865579710142Q1205.3456521739126 1028.066557971014 1205.3456521739126 1027.756557971014T1205.5856521739126 1027.3265579710142Q1205.8356521739126 1027.2065579710143 1206.1356521739126 1027.1865579710143Q1206.4356521739126 1027.176557971014 1206.6756521739126 1026.9965579710142Q1206.9256521739126 1026.8265579710142 1206.9256521739126 1026.4365579710143V1022.8865579710142Q1206.9256521739126 1020.6065579710142 1206.3956521739126 1019.5565579710141Q1205.8056521739127 1018.3765579710142 1204.0356521739127 1018.3765579710142Q1201.9056521739126 1018.3765579710142 1201.1356521739126 1019.5165579710141Q1200.4156521739126 1020.5865579710143 1200.4156521739126 1022.9465579710142V1026.4365579710143Q1200.4156521739126 1027.1465579710143 1201.2056521739125 1027.1865579710143Q1201.9856521739125 1027.2265579710142 1201.9856521739125 1027.816557971014Q1201.9856521739125 1028.486557971014 1201.2456521739125 1028.6465579710143Q1200.7056521739125 1028.7665579710142 1199.7156521739125 1028.7665579710142M1230.2356521739125 1021.1665579710142Q1230.2356521739125 1022.2765579710141 1229.3956521739126 1023.1165579710142Q1227.7456521739125 1024.7665579710142 1224.6956521739125 1024.7665579710142Q1224.0956521739124 1024.7665579710142 1223.4256521739126 1024.6465579710143L1222.5756521739124 1024.506557971014V1024.4965579710142Q1221.6556521739126 1025.276557971014 1221.6556521739126 1025.8665579710141Q1221.6556521739126 1026.3965579710143 1222.1756521739126 1026.5865579710144Q1222.9256521739126 1026.8465579710141 1224.2556521739125 1026.8765579710143Q1225.5856521739126 1026.8965579710143 1226.3256521739127 1026.9165579710143Q1227.0756521739127 1026.9365579710143 1227.9356521739126 1026.9965579710142Q1228.8056521739127 1027.0565579710142 1229.4656521739125 1027.236557971014T1230.6956521739125 1027.7065579710143Q1231.8656521739126 1028.3165579710144 1231.8656521739126 1029.7765579710144Q1231.8656521739126 1030.8765579710143 1231.2956521739125 1031.7265579710142Q1230.7256521739125 1032.5665579710144 1229.7556521739125 1033.0565579710142Q1227.8456521739126 1034.0365579710142 1225.1956521739125 1034.0365579710142Q1222.8956521739126 1034.0365579710142 1221.1556521739126 1033.4065579710145Q1220.2156521739125 1033.0665579710144 1219.6656521739126 1032.3965579710143Q1219.1156521739126 1031.7365579710145 1219.1156521739126 1030.8065579710142Q1219.1156521739126 1029.0765579710142 1220.8556521739126 1028.1365579710146Q1220.3956521739126 1027.6765579710145 1220.2256521739127 1027.2765579710144Q1220.0656521739127 1026.8765579710143 1220.0656521739127 1026.3365579710144T1220.1656521739128 1025.5065579710144T1220.4656521739128 1024.9665579710145Q1220.7356521739127 1024.6565579710145 1221.4656521739128 1024.1065579710144Q1220.3256521739127 1023.5265579710143 1219.7156521739128 1022.8165579710143Q1219.1156521739126 1022.1065579710142 1219.1156521739126 1021.0065579710143Q1219.1156521739126 1019.9165579710144 1219.6156521739126 1019.1165579710145Q1220.1256521739126 1018.3065579710145 1220.9556521739128 1017.8265579710145Q1222.6456521739128 1016.8665579710145 1224.7156521739128 1016.8665579710145Q1225.3056521739127 1016.8665579710145 1226.9056521739128 1017.1665579710144Q1228.5156521739127 1017.4665579710144 1228.7056521739128 1017.4665579710144Q1229.7956521739127 1017.4665579710144 1229.9756521739127 1016.3765579710142Q1231.5356521739127 1016.3765579710142 1231.5356521739127 1017.6265579710142Q1231.5356521739127 1018.2165579710144 1231.1756521739126 1018.5665579710143T1230.3456521739126 1018.9165579710144T1229.3456521739126 1018.8665579710145Q1229.6956521739125 1019.1765579710144 1229.9656521739125 1019.8165579710145Q1230.2356521739125 1020.4665579710144 1230.2356521739125 1021.1665579710144M1224.7656521739125 1017.9165579710144Q1223.4456521739125 1017.9165579710144 1222.5256521739125 1018.6865579710144T1221.6056521739126 1020.7065579710144Q1221.6056521739126 1021.9665579710144 1222.5456521739127 1022.7765579710145Q1223.4956521739127 1023.5765579710145 1224.8656521739126 1023.5765579710145Q1226.2256521739127 1023.5765579710145 1227.0756521739127 1022.8265579710145T1227.9256521739128 1020.8665579710145T1227.0056521739127 1018.7865579710143T1224.7656521739127 1017.9165579710144M1224.9756521739127 1032.6165579710146Q1226.8556521739129 1032.6165579710146 1227.8256521739129 1032.2165579710145Q1228.805652173913 1031.8165579710144 1229.1856521739128 1031.2965579710144Q1229.565652173913 1030.7865579710146 1229.565652173913 1030.0565579710146Q1229.565652173913 1028.5565579710146 1223.7256521739127 1028.5565579710146Q1222.0756521739129 1028.5565579710146 1222.0756521739129 1028.5265579710144Q1221.1556521739128 1029.4665579710145 1221.1556521739128 1030.3165579710144Q1221.1556521739128 1032.6165579710146 1224.975652173913 1032.6165579710146M1264.225652173913 1025.1965579710145L1264.715652173913 1026.3565579710144Q1267.1356521739128 1020.0465579710145 1267.3656521739128 1018.8865579710144Q1267.3656521739128 1018.6365579710144 1266.815652173913 1018.5065579710143Q1265.775652173913 1018.2965579710143 1265.775652173913 1017.8665579710145Q1265.775652173913 1017.5065579710143 1265.865652173913 1017.3765579710144Q1267.135652173913 1017.0665579710145 1268.685652173913 1017.0665579710145Q1271.205652173913 1017.0665579710145 1271.205652173913 1017.5965579710145Q1271.205652173913 1018.0465579710145 1270.7956521739131 1018.3765579710144Q1269.875652173913 1018.5065579710143 1269.415652173913 1018.9365579710144Q1268.945652173913 1019.3565579710142 1268.645652173913 1020.1565579710144L1267.885652173913 1022.1465579710144Q1265.7056521739132 1027.6565579710145 1265.4556521739132 1028.0465579710144Q1264.865652173913 1029.0565579710142 1264.2956521739131 1029.0565579710142Q1263.845652173913 1029.0565579710142 1263.325652173913 1027.9265579710145Q1263.2256521739132 1027.7265579710142 1263.2156521739132 1027.6865579710143L1260.4156521739133 1021.5265579710143Q1258.4856521739132 1025.8365579710144 1257.4556521739132 1027.9865579710145Q1257.1956521739132 1028.6065579710144 1256.9156521739133 1028.7865579710142Q1256.6356521739133 1028.9565579710143 1256.335652173913 1028.9565579710143T1255.9456521739132 1028.8665579710141T1255.7456521739132 1028.5865579710144T1255.5556521739131 1028.2665579710142Q1255.485652173913 1028.1265579710143 1255.365652173913 1027.8765579710143T1255.205652173913 1027.5665579710144L1252.2956521739131 1020.8265579710143Q1251.5256521739132 1018.9165579710144 1251.225652173913 1018.6065579710142V1018.6165579710142Q1251.005652173913 1018.5265579710143 1250.505652173913 1018.4465579710144T1249.745652173913 1018.2065579710144Q1249.495652173913 1018.0465579710143 1249.495652173913 1017.6665579710144Q1249.495652173913 1017.0665579710143 1252.835652173913 1017.0665579710143Q1253.985652173913 1017.0665579710143 1254.8156521739131 1017.2265579710144Q1255.655652173913 1017.3865579710142 1255.655652173913 1017.6165579710142Q1255.655652173913 1018.0265579710143 1255.5056521739132 1018.1565579710142Q1255.355652173913 1018.2965579710143 1254.9456521739132 1018.4065579710142Q1254.2556521739132 1018.5865579710143 1254.2556521739132 1018.9965579710143Q1254.2556521739132 1019.6065579710142 1255.415652173913 1022.6265579710142Q1256.585652173913 1025.656557971014 1256.915652173913 1026.3265579710142Q1258.0256521739132 1023.9665579710144 1259.595652173913 1019.9765579710144Q1259.195652173913 1018.9765579710144 1258.875652173913 1018.7265579710144L1258.375652173913 1018.3265579710143Q1257.975652173913 1018.0265579710143 1257.975652173913 1017.8865579710142Q1257.975652173913 1017.2565579710143 1260.385652173913 1017.2565579710143T1262.795652173913 1017.7265579710144Q1262.795652173913 1018.1665579710144 1262.245652173913 1018.2165579710144Q1261.685652173913 1018.2565579710143 1261.685652173913 1018.5865579710143T1261.7756521739132 1019.1665579710144T1261.9656521739132 1019.6565579710144Q1262.0656521739131 1019.8865579710144 1262.2456521739132 1020.3765579710144Q1262.6856521739132 1021.5965579710145 1264.2256521739132 1025.1965579710145M1284.2056521739132 1029.0565579710146Q1281.4456521739132 1029.0565579710146 1279.7656521739132 1027.3165579710144Q1278.075652173913 1025.5765579710146 1278.075652173913 1022.9065579710144Q1278.075652173913 1021.1265579710144 1278.965652173913 1019.7365579710146T1281.375652173913 1017.6065579710145T1284.765652173913 1016.8665579710145Q1287.455652173913 1016.8665579710145 1289.195652173913 1018.5365579710145Q1290.945652173913 1020.2065579710144 1290.945652173913 1022.8565579710145Q1290.945652173913 1024.6865579710147 1290.045652173913 1026.1165579710146Q1289.145652173913 1027.5365579710146 1287.625652173913 1028.2965579710144Q1286.095652173913 1029.0565579710146 1284.205652173913 1029.0565579710146M1284.705652173913 1027.7065579710143Q1286.5256521739132 1027.7065579710143 1287.5456521739131 1026.4765579710142Q1288.5656521739131 1025.2365579710145 1288.5656521739131 1023.1865579710144T1287.385652173913 1019.6465579710144Q1286.2156521739132 1018.1565579710144 1284.385652173913 1018.1565579710144Q1282.5456521739131 1018.1565579710144 1281.5556521739131 1019.4165579710144T1280.5656521739131 1022.7165579710144Q1280.5656521739131 1024.7465579710142 1281.725652173913 1026.2265579710142T1284.705652173913 1027.7065579710143M1302.2956521739131 1028.7565579710144L1301.2456521739132 1028.7665579710142Q1299.645652173913 1028.7665579710142 1299.2656521739132 1028.2765579710144Q1299.095652173913 1028.0565579710142 1299.095652173913 1027.7465579710142T1299.335652173913 1027.3165579710144Q1299.585652173913 1027.1965579710145 1299.885652173913 1027.1765579710145Q1300.185652173913 1027.1665579710143 1300.425652173913 1026.9865579710145Q1300.665652173913 1026.8165579710144 1300.665652173913 1026.4265579710145V1020.3965579710144Q1300.665652173913 1019.3065579710145 1300.405652173913 1019.0465579710145Q1300.145652173913 1018.7965579710145 1299.965652173913 1018.7165579710144Q1299.7856521739131 1018.6465579710144 1299.415652173913 1018.5365579710145Q1299.0356521739131 1018.4265579710144 1298.7956521739131 1018.3165579710145T1298.5556521739131 1017.9865579710143Q1298.5556521739131 1017.0165579710143 1301.185652173913 1017.0165579710143Q1302.2956521739131 1017.0165579710143 1302.595652173913 1017.3965579710144T1302.895652173913 1019.1765579710144Q1303.305652173913 1018.1265579710144 1304.265652173913 1017.5265579710143T1306.225652173913 1016.9265579710144Q1307.235652173913 1016.9265579710144 1307.885652173913 1017.3565579710142Q1308.545652173913 1017.7965579710143 1308.545652173913 1018.4565579710144Q1308.545652173913 1019.1265579710142 1308.115652173913 1019.5165579710143Q1307.685652173913 1019.9165579710142 1307.0656521739131 1019.9165579710142T1305.995652173913 1019.5865579710143Q1305.555652173913 1019.2565579710141 1305.415652173913 1018.7365579710141Q1305.0956521739129 1018.6865579710142 1304.895652173913 1018.6865579710142Q1302.985652173913 1018.6865579710142 1302.985652173913 1023.0665579710143V1026.426557971014Q1302.985652173913 1027.136557971014 1303.775652173913 1027.176557971014T1304.565652173913 1027.8065579710142Q1304.565652173913 1028.4765579710142 1303.8356521739129 1028.636557971014Q1303.265652173913 1028.7565579710144 1302.295652173913 1028.7565579710144M1319.805652173913 1028.7565579710144L1318.755652173913 1028.7665579710142Q1317.155652173913 1028.7665579710142 1316.775652173913 1028.2765579710144Q1316.605652173913 1028.0565579710142 1316.605652173913 1027.7465579710142T1316.855652173913 1027.3165579710144Q1317.095652173913 1027.1965579710145 1317.395652173913 1027.1765579710145Q1317.685652173913 1027.1665579710143 1317.925652173913 1026.9865579710145Q1318.175652173913 1026.8165579710144 1318.175652173913 1026.4265579710145V1013.5365579710143Q1318.175652173913 1012.4265579710144 1317.295652173913 1012.3365579710143Q1317.205652173913 1012.3265579710143 1317.0756521739129 1012.3165579710143Q1316.935652173913 1012.2965579710143 1316.8756521739128 1012.2965579710143Q1316.815652173913 1012.2865579710143 1316.725652173913 1012.2665579710143T1316.5956521739129 1012.2265579710144Q1316.545652173913 1012.2065579710144 1316.515652173913 1012.1665579710144Q1316.4256521739128 1012.0965579710145 1316.4256521739128 1011.8165579710145Q1316.4256521739128 1011.5265579710145 1316.805652173913 1011.2265579710144Q1317.4856521739127 1010.6665579710144 1318.6456521739128 1010.6665579710144Q1319.8856521739128 1010.6665579710144 1320.0856521739129 1010.8065579710145Q1320.505652173913 1011.1065579710145 1320.505652173913 1011.5765579710145V1026.4265579710145Q1320.505652173913 1027.1365579710146 1321.295652173913 1027.1765579710145Q1322.0756521739129 1027.2165579710145 1322.0756521739129 1027.8065579710146Q1322.0756521739129 1028.4765579710142 1321.3456521739129 1028.6365579710146Q1320.785652173913 1028.7565579710144 1319.805652173913 1028.7565579710144M1339.535652173913 1019.5965579710145Q1339.025652173913 1018.9265579710146 1338.065652173913 1018.5265579710145Q1337.1056521739129 1018.1365579710144 1335.9256521739128 1018.1365579710144Q1334.7356521739127 1018.1365579710144 1333.9056521739128 1018.8165579710145Q1332.295652173913 1020.1465579710144 1332.295652173913 1022.7465579710143Q1332.295652173913 1024.7565579710144 1333.3856521739128 1026.1565579710145T1336.235652173913 1027.5565579710142Q1337.985652173913 1027.5565579710142 1338.755652173913 1026.8265579710142Q1339.535652173913 1026.1065579710144 1339.535652173913 1024.4165579710143ZM1336.1656521739128 1016.8165579710145Q1336.9756521739127 1016.8165579710145 1337.9656521739128 1017.0765579710145T1339.535652173913 1017.6365579710144V1013.5465579710145Q1339.535652173913 1012.4365579710144 1338.6556521739128 1012.3465579710145Q1338.565652173913 1012.3365579710145 1338.4356521739128 1012.3265579710145Q1338.305652173913 1012.3065579710145 1338.2356521739127 1012.3065579710145Q1338.1756521739128 1012.2965579710145 1338.0856521739129 1012.2765579710145T1337.9556521739128 1012.2365579710146T1337.8756521739128 1012.1765579710146Q1337.7856521739127 1012.1065579710145 1337.7856521739127 1011.8265579710145Q1337.7856521739127 1011.5365579710145 1338.1656521739128 1011.2365579710146Q1338.8556521739129 1010.6765579710146 1340.0056521739127 1010.6765579710146Q1341.2456521739127 1010.6765579710146 1341.4556521739128 1010.8165579710145Q1341.8656521739128 1011.1165579710145 1341.8656521739128 1011.5865579710145V1024.9465579710145Q1341.8656521739128 1026.2965579710144 1342.1556521739128 1026.7065579710147Q1342.4656521739128 1027.0965579710146 1342.7056521739128 1027.1765579710145Q1342.9356521739128 1027.2665579710147 1343.1156521739126 1027.3265579710146T1343.3656521739126 1027.4165579710148T1343.5456521739127 1027.5165579710147Q1343.7456521739127 1027.6265579710148 1343.7456521739127 1027.8665579710146Q1343.7456521739127 1028.3765579710148 1343.2056521739128 1028.6165579710146Q1342.6556521739128 1028.8465579710146 1341.7656521739127 1028.8465579710146Q1340.8656521739126 1028.8465579710146 1340.4656521739128 1028.5065579710144Q1340.0556521739127 1028.1665579710148 1339.7556521739127 1027.2565579710144Q1338.7556521739127 1029.0265579710144 1335.5756521739127 1029.0265579710144Q1333.0356521739127 1029.0265579710144 1331.4456521739128 1027.3365579710144Q1329.8556521739126 1025.6565579710145 1329.8556521739126 1022.9665579710146T1331.6256521739126 1018.5465579710145T1336.1656521739126 1016.8165579710145M1357.3156521739127 1027.6465579710148Q1360.0656521739127 1027.6465579710148 1360.0656521739127 1025.9565579710147Q1360.0656521739127 1024.6865579710147 1357.5856521739126 1023.9665579710146L1356.4656521739125 1023.6565579710146Q1355.2256521739125 1023.3265579710145 1354.8056521739127 1023.1565579710146Q1353.7256521739125 1022.7365579710146 1352.9856521739125 1021.9465579710146Q1352.2356521739125 1021.1465579710147 1352.2356521739125 1020.0665579710145Q1352.2356521739125 1018.6565579710146 1353.5756521739127 1017.7365579710146Q1354.9156521739126 1016.8065579710145 1356.8056521739127 1016.8065579710145Q1358.6456521739126 1016.8065579710145 1360.2556521739127 1017.4765579710146Q1361.0556521739127 1017.8065579710145 1361.5456521739127 1018.3965579710144Q1362.0356521739127 1018.9765579710146 1362.0356521739127 1019.6165579710145Q1362.0356521739127 1020.2465579710146 1361.5356521739127 1020.6265579710144Q1361.0256521739127 1021.0065579710146 1360.4856521739127 1021.0065579710146Q1359.9356521739128 1021.0065579710146 1359.7656521739127 1020.8965579710144Q1359.5856521739126 1020.7965579710145 1359.5856521739126 1020.4165579710144Q1359.5856521739126 1018.0665579710145 1357.0856521739126 1018.0665579710145Q1356.0456521739127 1018.0665579710145 1355.2756521739127 1018.5165579710145Q1354.5056521739127 1018.9765579710146 1354.5056521739127 1019.7065579710146Q1354.5056521739127 1020.8565579710145 1356.8956521739128 1021.5265579710145L1357.8156521739127 1021.7665579710145Q1358.3556521739126 1021.9065579710146 1358.8056521739127 1022.0465579710145T1359.7556521739127 1022.3765579710147Q1360.2456521739127 1022.5665579710147 1360.7956521739127 1022.8765579710147Q1361.3456521739126 1023.1765579710146 1361.6856521739128 1023.5265579710145Q1362.4756521739127 1024.3365579710144 1362.4756521739127 1025.4765579710147T1361.7056521739128 1027.4465579710145Q1360.1856521739128 1029.0765579710146 1357.3156521739127 1029.0765579710146Q1355.4456521739128 1029.0765579710146 1353.8756521739126 1028.4665579710145Q1353.0656521739127 1028.1465579710148 1352.5756521739127 1027.5865579710148Q1352.0956521739126 1027.0265579710149 1352.0956521739126 1026.3865579710146Q1352.0956521739126 1025.7565579710144 1352.4956521739127 1025.4065579710145T1353.4056521739126 1025.0565579710146Q1353.9256521739126 1025.0565579710146 1354.2856521739127 1025.3765579710148Q1354.6456521739126 1025.6865579710147 1354.6456521739126 1026.1565579710145T1354.5556521739127 1027.1665579710148Q1355.8556521739126 1027.6465579710148 1357.3156521739127 1027.6465579710148M961.4206521739129 634.4015579710144H1072.020652173913A3.95 3.95 0 0 0 1075.970652173913 630.4515579710144V618.6015579710144C1075.970652173913 605.5115579710143 1065.360652173913 594.9015579710144 1052.270652173913 594.9015579710144H981.1706521739129C968.080652173913 594.9015579710144 957.470652173913 605.5115579710143 957.470652173913 618.6015579710144V630.4515579710144A3.95 3.95 0 0 0 961.4206521739129 634.4015579710144M1004.870652173913 733.1905579710144C1004.870652173913 739.7355579710144 1010.175652173913 745.0405579710143 1016.720652173913 745.0405579710143S1028.570652173913 739.7355579710144 1028.570652173913 733.1905579710144C1028.570652173913 729.0435579710144 1022.329652173913 720.9455579710143 1016.720652173913 715.0605579710143C1011.111652173913 720.9455579710143 1004.870652173913 729.0435579710144 1004.870652173913 733.1905579710144 "></path><path fill="#001572" d="M1104.687652173913 694.3235579710145A10.67 10.67 0 0 0 1095.720652173913 689.7015579710144C1052.981652173913 689.7015579710144 1052.270652173913 655.6125579710144 1052.270652173913 654.1515579710144A3.95 3.95 0 0 0 1048.320652173913 650.2015579710144H985.120652173913A3.95 3.95 0 0 0 981.170652173913 654.1515579710144C981.170652173913 655.5735579710145 980.459652173913 689.7015579710144 937.7206521739131 689.7015579710144Q932.071652173913 689.7015579710144 928.753652173913 694.3235579710145C916.350652173913 711.5055579710145 939.2216521739131 781.7365579710145 941.867652173913 789.7155579710144A3.95 3.95 0 0 0 945.620652173913 792.4015579710144H1087.820652173913A3.95 3.95 0 0 0 1091.572652173913 789.7155579710144C1094.219652173913 781.7365579710145 1117.089652173913 711.5055579710145 1104.686652173913 694.3235579710145M1016.720652173913 752.9015579710144C1005.812652173913 752.9015579710144 996.970652173913 744.0595579710143 996.970652173913 733.1515579710144C996.970652173913 723.2375579710144 1011.190652173913 709.2935579710144 1013.994652173913 706.5685579710143A3.95 3.95 0 0 1 1019.445652173913 706.5685579710143C1022.2506521739131 709.2935579710145 1036.470652173913 723.2765579710144 1036.470652173913 733.1515579710144C1036.470652173913 744.0595579710143 1027.628652173913 752.9015579710144 1016.720652173913 752.9015579710144 "></path></g><rect width="710" height="542" x="645" y="479" id="space-saver" fill="transparent" stroke="transparent"></rect></g></svg>